<svg width="16" height="16" viewBox="0 0 16 16" fill="none" xmlns="http://www.w3.org/2000/svg">
<path d="M13.6386 3.90217L12.0968 2.36037L10.1538 1.37085L7.99998 1.0293L5.8462 1.37085L3.90315 2.36037L2.36135 3.90217L1.37182 5.84523L1.03027 7.999L1.37182 10.1528L2.36135 12.0958L3.90315 13.6376L5.8462 14.628L7.99998 14.9696L10.1538 14.628L12.0968 13.6376L13.6386 12.0958L14.629 10.1528L14.9706 7.999L14.629 5.84523L13.6386 3.90217Z" stroke="white" stroke-width="0.8" stroke-miterlimit="10"/>
<path d="M9.5738 5.83309L7.99951 3.19202" stroke="white" stroke-width="0.4" stroke-linecap="round" stroke-linejoin="round"/>
<path d="M4.76147 3.54235L7.9996 3.19202L11.2386 3.54235" stroke="white" stroke-width="0.4" stroke-miterlimit="10"/>
<path d="M6.4259 5.83167H9.5736" stroke="white" stroke-width="0.4" stroke-linecap="round" stroke-linejoin="round"/>
<path d="M7.99931 3.19202L6.4259 5.83309" stroke="white" stroke-width="0.4" stroke-linecap="round" stroke-linejoin="round"/>
<path d="M4.76147 3.54158L5.84583 1.37024L7.9996 3.19125L10.1534 1.37024L11.2386 3.54158" stroke="white" stroke-width="0.4" stroke-miterlimit="10"/>
<path d="M12.0966 2.35925L7.99978 7.99788L3.90295 2.35925" stroke="white" stroke-width="0.4" stroke-linecap="round" stroke-linejoin="round"/>
<path d="M3.42786 6.51213L6.42629 5.83167L5.45344 8.82571L7.9997 10.6757L10.826 11.8874" stroke="white" stroke-width="0.4" stroke-linecap="round" stroke-linejoin="round"/>
<path d="M3.42786 6.51355L5.45344 8.82713" stroke="white" stroke-width="0.4" stroke-linecap="round" stroke-linejoin="round"/>
<path d="M2.75948 9.70068L1.02979 7.9982L3.42765 6.51259L2.36086 3.90137L4.76136 3.54138L3.42765 6.51259L2.75948 9.70068ZM2.75948 9.70068L5.17403 11.8878L7.99949 13.5086L10.1533 14.6272L10.8258 11.8878L13.6381 12.095L13.2395 9.70068" stroke="white" stroke-width="0.4" stroke-miterlimit="10"/>
<path d="M5.45328 8.82605L5.17407 11.8877" stroke="white" stroke-width="0.4" stroke-linecap="round" stroke-linejoin="round"/>
<path d="M5.17407 11.8871L7.99953 10.6754" stroke="white" stroke-width="0.4" stroke-linecap="round" stroke-linejoin="round"/>
<path d="M7.99923 13.509L5.84545 14.6276L5.17376 11.8882L2.3606 12.0954L2.75922 9.70105" stroke="white" stroke-width="0.4" stroke-miterlimit="10"/>
<path d="M1.3717 10.151L7.99986 7.99719V14.9678" stroke="white" stroke-width="0.4" stroke-linecap="round" stroke-linejoin="round"/>
<path d="M10.5468 8.82617L10.826 11.8878L13.2397 9.70068L14.9703 7.9982L12.5724 6.51259L13.6383 3.90137L11.2387 3.54138L12.5724 6.51259L9.57397 5.83213L10.5468 8.82617ZM10.5468 8.82617L12.5724 6.51259L13.2397 9.70068" stroke="white" stroke-width="0.4" stroke-linecap="round" stroke-linejoin="round"/>
<path d="M7.99951 7.99719L14.6285 10.151" stroke="white" stroke-width="0.4" stroke-linecap="round" stroke-linejoin="round"/>
<path d="M7.99951 10.676L10.5466 8.82605" stroke="white" stroke-width="0.4" stroke-linecap="round" stroke-linejoin="round"/>
<path d="M7.99951 13.5094L10.8259 11.8885L12.0963 13.6376" stroke="white" stroke-width="0.4" stroke-linecap="round" stroke-linejoin="round"/>
<path d="M7.99951 3.191V1.02844" stroke="white" stroke-width="0.4" stroke-linecap="round" stroke-linejoin="round"/>
<path d="M12.572 6.51278L14.6283 5.8446" stroke="white" stroke-width="0.4" stroke-linecap="round" stroke-linejoin="round"/>
<path d="M5.17432 11.8885L3.90295 13.6376" stroke="white" stroke-width="0.4" stroke-linecap="round" stroke-linejoin="round"/>
<path d="M3.42802 6.51278L1.3717 5.8446" stroke="white" stroke-width="0.4" stroke-linecap="round" stroke-linejoin="round"/>
</svg>
