<svg width="24" height="24" viewBox="0 0 24 24" fill="none" xmlns="http://www.w3.org/2000/svg">
<path d="M23.6115 23.3955C23.5525 23.3805 23.49 23.382 23.43 23.3715C23.102 23.311 22.6905 23.3475 22.394 23.201C21.4615 22.741 21.3765 22.297 21.347 22.201C21.3134 22.0837 21.2886 21.964 21.273 21.843C21.2696 21.5865 21.2835 21.3301 21.3145 21.0755C21.3948 20.6138 21.5161 20.1601 21.677 19.72C21.8155 19.3425 21.927 18.955 22.0485 18.57C22.1725 18.175 22.2985 17.7805 22.4145 17.383C22.4832 17.1484 22.5398 16.9104 22.584 16.67C22.7543 15.8796 22.8102 15.0688 22.75 14.2625C22.6981 13.7061 22.5699 13.1595 22.369 12.638C22.2362 12.2704 22.0589 11.9205 21.841 11.596C21.6036 11.2604 21.3402 10.9441 21.053 10.65C20.7884 10.3852 20.5002 10.145 20.192 9.93251C19.8996 9.73516 19.5935 9.55888 19.276 9.40501C19.034 9.28251 18.726 9.10501 18.476 8.99701C18.432 8.97651 17.5125 8.54701 16.949 8.06151C16.814 7.97051 16.8015 7.89951 16.917 7.78301C17.084 7.61551 17.2545 7.45151 17.4215 7.28302C18.1422 6.56135 18.8617 5.83868 19.58 5.11502C19.6111 5.07988 19.6548 5.05843 19.7016 5.05534C19.7484 5.05225 19.7946 5.06777 19.83 5.09852C19.9575 5.17852 20.08 5.26652 20.2105 5.33952C20.7535 5.63952 21.3255 5.78202 21.935 5.58052C22.211 5.48725 22.4525 5.31302 22.628 5.08052C22.8593 4.76512 23.029 4.40888 23.128 4.03052C23.2835 3.50802 23.512 1.51752 23.593 0.711526C23.5967 0.674447 23.593 0.63701 23.5821 0.601366C23.5713 0.565722 23.5535 0.532571 23.5298 0.503815C23.5061 0.475059 23.477 0.451265 23.4441 0.433797C23.4112 0.41633 23.3751 0.405533 23.338 0.402026C23.3194 0.400025 23.3006 0.400025 23.282 0.402026C22.4775 0.483026 20.487 0.711525 19.9635 0.867025C19.5853 0.966445 19.2291 1.13605 18.9135 1.36702C18.6809 1.54269 18.5067 1.78436 18.4135 2.06052C18.2135 2.66952 18.353 3.24052 18.655 3.78452C18.7285 3.91602 18.8155 4.03802 18.896 4.16452C18.927 4.19976 18.9427 4.24579 18.9399 4.2926C18.9371 4.33942 18.916 4.38323 18.881 4.41452C18.1604 5.13452 17.4384 5.85502 16.715 6.57602C16.5475 6.74302 16.383 6.91352 16.215 7.08052C16.099 7.19652 16.028 7.18352 15.9365 7.04852C15.45 6.48502 15.0225 5.56602 15 5.52102C14.8895 5.27102 14.715 4.96452 14.593 4.72102C14.4382 4.4036 14.2609 4.09766 14.0625 3.80552C13.8499 3.49956 13.6102 3.21325 13.3465 2.95002C13.0538 2.66298 12.739 2.39934 12.405 2.16152C12.0804 1.94405 11.7305 1.76691 11.363 1.63402C10.8414 1.43305 10.2946 1.30501 9.73802 1.25352C8.93008 1.19265 8.11758 1.24839 7.32552 1.41902C7.08487 1.46298 6.84671 1.51956 6.61201 1.58852C6.21501 1.70502 5.82001 1.83052 5.42551 1.95452C5.04201 2.07502 4.65401 2.18702 4.27551 2.32602C3.83536 2.48693 3.38173 2.60824 2.92001 2.68852C2.66558 2.71969 2.40931 2.73339 2.15301 2.72952C2.03196 2.71428 1.91227 2.68971 1.79501 2.65602C1.70101 2.62652 1.25801 2.54202 0.795009 1.60952C0.645009 1.31452 0.684008 0.901525 0.624508 0.573526C0.613008 0.514026 0.616009 0.450526 0.600509 0.392526C0.573008 0.292526 0.525508 0.204026 0.406008 0.202026C0.320508 0.202026 0.229508 0.306526 0.221008 0.415526C0.1788 0.885709 0.191216 1.3592 0.258008 1.82652C0.301807 2.14126 0.400468 2.44587 0.549508 2.72652C0.623508 2.87652 0.887509 3.27652 0.906509 3.32252C0.943142 3.40328 0.964827 3.49002 0.970509 3.57852C1.05001 4.05002 2.45001 13.2915 2.80401 15.565C2.97368 15.4246 3.16176 15.308 3.36301 15.2185C3.01301 13.043 1.46901 3.48002 1.63001 3.54352C2.33301 3.81352 3.04851 3.77002 3.76601 3.64852C4.14301 3.58502 4.51601 3.48152 4.89001 3.41452C5.29551 3.34102 5.70101 3.26702 6.11051 3.23002C6.91348 3.17599 7.72006 3.23405 8.50702 3.40252C8.87106 3.47332 9.22988 3.5687 9.58102 3.68802C9.95407 3.80651 10.3045 3.98704 10.6175 4.22202C10.896 4.43952 11.178 4.65602 11.4325 4.89902C11.632 5.10228 11.8168 5.3195 11.9855 5.54902C12.1255 5.72802 12.252 5.91802 12.375 6.10852C12.815 6.79152 13.2165 7.99201 14.025 9.05051C14.0356 9.06409 14.0444 9.07886 14.0515 9.09451C14.2914 9.44585 14.5981 9.74656 14.954 9.97951C14.9655 9.98801 14.977 9.99651 14.9875 10.005C16.2375 10.9355 17.2775 11.2185 17.8935 11.627C18.0825 11.7525 18.2735 11.877 18.453 12.0165C18.6825 12.1852 18.8998 12.37 19.103 12.5695C19.346 12.825 19.5625 13.1065 19.78 13.3845C20.0146 13.6976 20.1951 14.0478 20.314 14.4205C20.4331 14.7715 20.5285 15.1302 20.5995 15.494C20.7678 16.2812 20.8258 17.0879 20.772 17.891C20.735 18.3 20.661 18.7065 20.5875 19.1115C20.519 19.4875 20.4165 19.8585 20.3535 20.235C20.2315 20.9525 20.19 21.668 20.458 22.37C20.528 22.547 9.14252 20.6945 8.38602 20.5745C8.36899 20.5715 8.35225 20.567 8.33602 20.561L8.15702 20.5295C8.23084 20.3762 8.2961 20.219 8.35252 20.0585C8.49652 19.6085 8.50252 19.142 8.52602 18.661C8.52546 18.1076 8.49508 17.5546 8.43502 17.0045C7.79148 17.6105 7.09165 18.1538 6.34501 18.627C6.30801 18.649 6.26751 18.608 6.29501 18.577L8.50002 16.2175C8.51302 16.203 8.52702 16.188 8.54152 16.1735C9.59852 15.1248 10.6534 14.0738 11.706 13.0205C12.497 12.2295 13.2862 11.4368 14.0735 10.6425C14.046 10.3475 13.8955 9.96951 13.3025 9.98401C12.5285 10.754 11.7542 11.5247 10.9795 12.296C9.92618 13.3473 8.87618 14.402 7.82952 15.46C7.78165 15.5149 7.72127 15.5575 7.65347 15.5841C7.58567 15.6107 7.51245 15.6207 7.44002 15.613C6.49001 15.5265 6.01601 15.432 5.34001 15.4785L5.20901 15.4865C5.14601 15.5125 5.11851 15.5495 5.18751 15.6035C5.3093 15.6543 5.41956 15.7293 5.51166 15.8238C5.60377 15.9183 5.67583 16.0304 5.72351 16.1535C5.74101 16.201 5.73251 16.2535 5.68651 16.232C5.18651 15.999 4.19701 15.598 3.58651 15.8105C3.53401 15.8285 3.49301 15.8415 3.46101 15.8515C3.23326 15.9553 3.02307 16.094 2.83801 16.2625C2.83148 16.2703 2.82429 16.2775 2.81651 16.284C2.30801 16.7265 2.17201 16.934 1.86651 17.534C1.81001 17.645 1.93701 17.652 2.26651 17.723C2.74601 17.826 2.98551 18.168 2.88001 18.173C2.17201 18.1965 1.95851 18.3145 1.58001 18.4195C1.51328 18.4285 1.4507 18.457 1.40016 18.5015C1.34961 18.546 1.31338 18.6044 1.29601 18.6695C1.22401 19.0195 1.04601 19.3195 0.883009 19.628C0.789009 19.8075 0.814508 19.9675 0.999509 20.0445C1.1303 20.1 1.27093 20.1286 1.41301 20.1285C1.73487 20.1251 2.05625 20.1029 2.37551 20.062C2.75451 20.0095 3.13001 19.931 3.50451 19.8515C3.58101 19.8355 3.62901 19.9205 3.65901 20.024C3.68217 20.107 3.72666 20.1826 3.78807 20.2431C3.84947 20.3036 3.92564 20.347 4.00901 20.369C4.0367 20.3751 4.06356 20.3845 4.08901 20.397C4.43101 20.5175 9.44652 21.3285 13.8765 22.0315C16.9645 22.502 20.155 22.9855 20.4265 23.0315C20.5145 23.037 20.6008 23.058 20.6815 23.0935C20.729 23.113 21.1315 23.3775 21.278 23.4505C21.5586 23.5999 21.8632 23.6987 22.178 23.7425C22.6455 23.8093 23.1192 23.8217 23.5895 23.7795C23.7 23.771 23.8045 23.6795 23.803 23.595C23.8 23.4695 23.711 23.421 23.6115 23.3955Z" fill="url(#paint0_linear_8236_42427)"/>
<path d="M3.94101 21.6305C3.90012 21.9498 3.87791 22.2712 3.87451 22.593C3.87463 22.735 3.90337 22.8754 3.95901 23.006C4.03601 23.1905 4.19551 23.2165 4.37501 23.1225C4.68401 22.96 4.98501 22.7805 5.33401 22.7085C5.40025 22.6937 5.46009 22.6582 5.50499 22.6073C5.54989 22.5564 5.57754 22.4926 5.58401 22.425C5.84851 21.0005 6.02951 22.452 6.13951 22.3955C6.59224 22.1729 7.01081 21.8866 7.38251 21.5455C6.18251 21.358 4.84601 21.1095 4.05451 20.9765C4.01101 21.192 3.97101 21.4105 3.94101 21.6305Z" fill="#FD806D"/>
<defs>
<linearGradient id="paint0_linear_8236_42427" x1="17.6901" y1="6.26074" x2="2.92927" y2="21.0216" gradientUnits="userSpaceOnUse">
<stop stop-color="#FED200"/>
<stop offset="1" stop-color="#FD806D"/>
</linearGradient>
</defs>
</svg>
