<svg version="1.1" xmlns="http://www.w3.org/2000/svg" x="0px" y="0px" viewBox="0 0 24 24">
	<path fill="#FFFFFF" d="M12,24c6.6,0,12-5.4,12-12S18.6,0,12,0S0,5.4,0,12S5.4,24,12,24z"/>
	<path fillRule="evenodd" clipRule="evenodd" d="M12,22.5c5.8,0,10.5-4.7,10.5-10.5S17.8,1.5,12,1.5S1.5,6.2,1.5,12S6.2,22.5,12,22.5z M24,12
		c0,6.6-5.4,12-12,12S0,18.6,0,12S5.4,0,12,0S24,5.4,24,12z"/>
	<path d="M12.8,10.9L17,6.8l-1.6-1.6L12,8.5L8.6,5.2L7,6.8l4.2,4.2c0.2,0.2,0.5,0.3,0.8,0.3S12.6,11.1,12.8,10.9L12.8,10.9z"/>
	<path d="M18.9,15.4L15.5,12l3.4-3.4L17.3,7l-4.2,4.2c-0.4,0.4-0.4,1.1,0,1.6l4.2,4.2L18.9,15.4z"/>
	<path d="M12,15.5l3.4,3.4l1.6-1.6l-4.2-4.2c-0.4-0.4-1.2-0.4-1.6,0L7,17.2l1.6,1.6L12,15.5L12,15.5z"/>
	<path d="M10.9,12.8c0.2-0.2,0.3-0.5,0.3-0.8c0-0.3-0.1-0.6-0.3-0.8L6.7,7L5.1,8.6L8.5,12l-3.4,3.4L6.7,17L10.9,12.8z"/>
</svg>
