<svg version="1.1" xmlns="http://www.w3.org/2000/svg" x="0px" y="0px" viewBox="0 0 24 24">
  <path fill="#FFFFFF" d="M12,24c6.6,0,12-5.4,12-12S18.6,0,12,0S0,5.4,0,12S5.4,24,12,24z" />
  <path
    d="M12.9,10.8l4.5-4.4l-1.7-1.7L12,8.2L8.4,4.7L6.6,6.4l4.5,4.5c0.2,0.2,0.5,0.3,0.9,0.3S12.6,11,12.9,10.8L12.9,10.8z"
  />
  <path
    d="M19.4,15.6L15.8,12l3.6-3.6l-1.7-1.7l-4.5,4.5c-0.4,0.4-0.4,1.2,0,1.7l4.5,4.5L19.4,15.6z"
  />
  <path
    d="M12,15.7l3.6,3.6l1.7-1.7l-4.5-4.5c-0.4-0.4-1.3-0.4-1.7,0l-4.5,4.4l1.7,1.7L12,15.7L12,15.7z"
  />
  <path
    d="M10.8,12.9c0.2-0.2,0.3-0.5,0.3-0.9s-0.1-0.6-0.3-0.9L6.3,6.6L4.6,8.4L8.2,12l-3.6,3.6l1.7,1.7L10.8,12.9z"
  />
</svg>
