<svg viewBox="0 0 24 24" xmlns="http://www.w3.org/2000/svg">
  <path
    d="M12 24C18.6499 24 24 18.6499 24 12C24 5.3501 18.6499 0 12 0C5.3501 0 0 5.3501 0 12C0 18.6499 5.3501 24 12 24Z"
    fill="#2775CA"
  />
  <path
    d="M15.2997 13.8998C15.2997 12.1497 14.2494 11.5497 12.1501 11.2996C10.6501 11.0994 10.3501 10.6996 10.3501 9.99977C10.3501 9.29998 10.8503 8.84967 11.8501 8.84967C12.7501 8.84967 13.2503 9.14967 13.4997 9.89998C13.5496 10.0503 13.7 10.1501 13.8496 10.1501H14.6498C14.8501 10.1501 14.9997 9.99977 14.9997 9.80019V9.7503C14.7995 8.65009 13.8995 7.80061 12.7501 7.70019V6.50019C12.7501 6.29998 12.5997 6.1503 12.3503 6.1004H11.6C11.3997 6.1004 11.2501 6.25009 11.2002 6.50019V7.6503C9.70016 7.85051 8.75027 8.8503 8.75027 10.1002C8.75027 11.7499 9.75006 12.4004 11.8501 12.6499C13.2503 12.9 13.7 13.2 13.7 13.9996C13.7 14.7991 13.0002 15.3492 12.0503 15.3492C10.7505 15.3492 10.3002 14.7991 10.1505 14.0495C10.1006 13.8492 9.95027 13.7495 9.80059 13.7495H8.95048C8.75027 13.7495 8.60059 13.8998 8.60059 14.0993V14.1492C8.8008 15.3991 9.60037 16.2991 11.2507 16.5492V17.7492C11.2507 17.9495 11.401 18.0991 11.6505 18.149H12.4008C12.601 18.149 12.7507 17.9987 12.8006 17.7492V16.5492C14.3006 16.2991 15.3004 15.2495 15.3004 13.8991L15.2997 13.8998Z"
    fill="white"
  />
  <path
    d="M9.45047 19.1501C5.55047 17.7499 3.55026 13.4002 5.00036 9.55014C5.75068 7.45014 7.40036 5.85035 9.45047 5.10003C9.65068 5.00024 9.75047 4.84993 9.75047 4.59982V3.90003C9.75047 3.69982 9.65068 3.55014 9.45047 3.50024C9.40057 3.50024 9.30015 3.50024 9.25026 3.55014C4.50015 5.05014 1.89994 10.1002 3.39994 14.8503C4.29994 17.6501 6.44984 19.8 9.24963 20.7C9.44984 20.7998 9.64941 20.7 9.69994 20.4998C9.74984 20.4499 9.74984 20.4 9.74984 20.2996V19.5998C9.74984 19.4495 9.60015 19.2499 9.44984 19.1501H9.45047ZM14.75 3.55014C14.5498 3.45035 14.3503 3.55014 14.2997 3.75035C14.2498 3.80024 14.2498 3.85014 14.2498 3.95056V4.65035C14.2498 4.85056 14.4002 5.05014 14.5498 5.15056C18.4498 6.55077 20.45 10.9005 18.9999 14.7506C18.2496 16.8506 16.5999 18.4503 14.5498 19.2007C14.3496 19.3005 14.2498 19.4508 14.2498 19.7009V20.4007C14.2498 20.6009 14.3496 20.7506 14.5498 20.8005C14.5997 20.8005 14.7002 20.8005 14.75 20.7506C19.5002 19.2506 22.0997 14.2005 20.5997 9.45035C19.6997 6.60067 17.4999 4.45014 14.75 3.55014V3.55014Z"
    fill="white"
  />
  <path
    d="M20 24C22.2091 24 24 22.2091 24 20C24 17.7909 22.2091 16 20 16C17.7909 16 16 17.7909 16 20C16 22.2091 17.7909 24 20 24Z"
    fill="white"
  />
  <circle fill="#FFFFFF" cx="20" cy="20" r="3.5" />
  <path
    d="M20,16c-2.2,0-4,1.8-4,4s1.8,4,4,4s4-1.8,4-4S22.2,16,20,16z M20,23.5c-1.9,0-3.5-1.6-3.5-3.5s1.6-3.5,3.5-3.5
	s3.5,1.6,3.5,3.5S21.9,23.5,20,23.5z"
  />
  <path
    d="M20.3,19.6l1.4-1.4l-0.5-0.5L20,18.8l-1.1-1.1l-0.5,0.5l1.4,1.4c0.1,0.1,0.2,0.1,0.3,0.1S20.2,19.7,20.3,19.6L20.3,19.6z"
  />
  <path
    d="M22.3,21.1L21.2,20l1.1-1.1l-0.5-0.5l-1.4,1.4c-0.1,0.1-0.1,0.4,0,0.5l1.4,1.4L22.3,21.1z"
  />
  <path
    d="M20,21.2l1.1,1.1l0.5-0.5l-1.4-1.4c-0.1-0.1-0.4-0.1-0.5,0l-1.4,1.4l0.5,0.5L20,21.2L20,21.2z"
  />
  <path
    d="M19.6,20.3c0.1-0.1,0.1-0.2,0.1-0.3c0-0.1,0-0.2-0.1-0.3l-1.4-1.4l-0.5,0.5l1.1,1.1L17.7,21l0.5,0.5L19.6,20.3z"
  />
</svg>
