<svg version="1.1" xmlns="http://www.w3.org/2000/svg" viewBox="0 0 24 24">
  <path
    fill="#FFFFFF"
    d="M12,0.9C5.9,0.9,0.9,5.9,1,12c0,6.1,5,11.1,11.1,11c6.1,0,11-5,11-11.1C23.1,5.9,18.1,0.9,12,0.9
	L12,0.9z"
  />
  <path
    fill="#282138"
    d="M12,24C5.4,24,0,18.6,0,12
	S5.4,0,12,0s12,5.4,12,12S18.6,24,12,24L12,24z M12,0.9C5.9,0.9,0.9,5.9,1,12c0,6.1,5,11.1,11.1,11c6.1,0,11-5,11-11.1
	C23.1,5.9,18.1,0.9,12,0.9L12,0.9z"
  />
  <path
    fill="#5A5564"
    d="M19.6,5l-0.7,0.7c3.3,3.6,3.3,9,0,12.6l0.7,0.7C23.2,15,23.2,9,19.6,5L19.6,5z"
  />
  <path fill="#5A5564" d="M5.7,5.1c3.6-3.3,9-3.3,12.6,0L19,4.4c-4-3.6-10-3.6-14,0L5.7,5.1z" />
  <path fill="#5A5564" d="M5.1,18.3c-3.3-3.6-3.3-9,0-12.6L4.4,5c-3.6,4-3.6,10,0,14L5.1,18.3z" />
  <path
    fill="#5A5564"
    d="M18.3,18.9c-3.6,3.3-9,3.3-12.6,0L5,19.6c3.9,3.6,10,3.6,13.9,0L18.3,18.9z"
  />
  <path
    fill="#F09242"
    d="M16.2,9.8c-0.1-1.4-1.3-1.8-2.8-2V5.9h-1.2v1.9c-0.3,0-0.6,0-0.9,0V5.9h-1.2v1.9H7.8V9
	c0,0,0.9,0,0.8,0c0.3,0,0.6,0.2,0.7,0.5v5.2c0,0.1-0.1,0.2-0.1,0.3c-0.1,0.1-0.2,0.1-0.3,0.1H8.1l-0.2,1.4h2.3v1.9h1.2v-1.9h0.9v1.9
	h1.2v-1.9c2-0.1,3.3-0.6,3.5-2.4c0.1-1.5-0.6-2.1-1.7-2.4C15.8,11.4,16.3,10.8,16.2,9.8z M14.5,13.9c0,1.4-2.5,1.3-3.3,1.3v-2.6
	C12.1,12.6,14.5,12.4,14.5,13.9z M14,10.3c0,1.3-2.1,1.2-2.7,1.2V9.2C11.9,9.2,14,9,14,10.3z"
  />
  <circle fill="#FFFFFF" cx="20" cy="20" r="3.5" />
  <path
    d="M20,16c-2.2,0-4,1.8-4,4s1.8,4,4,4s4-1.8,4-4S22.2,16,20,16z M20,23.5c-1.9,0-3.5-1.6-3.5-3.5s1.6-3.5,3.5-3.5
	s3.5,1.6,3.5,3.5S21.9,23.5,20,23.5z"
  />
  <path
    d="M20.3,19.6l1.4-1.4l-0.5-0.5L20,18.8l-1.1-1.1l-0.5,0.5l1.4,1.4c0.1,0.1,0.2,0.1,0.3,0.1S20.2,19.7,20.3,19.6L20.3,19.6z"
  />
  <path
    d="M22.3,21.1L21.2,20l1.1-1.1l-0.5-0.5l-1.4,1.4c-0.1,0.1-0.1,0.4,0,0.5l1.4,1.4L22.3,21.1z"
  />
  <path
    d="M20,21.2l1.1,1.1l0.5-0.5l-1.4-1.4c-0.1-0.1-0.4-0.1-0.5,0l-1.4,1.4l0.5,0.5L20,21.2L20,21.2z"
  />
  <path
    d="M19.6,20.3c0.1-0.1,0.1-0.2,0.1-0.3c0-0.1,0-0.2-0.1-0.3l-1.4-1.4l-0.5,0.5l1.1,1.1L17.7,21l0.5,0.5L19.6,20.3z"
  />
</svg>
