<svg version="1.1" xmlns="http://www.w3.org/2000/svg" viewBox="0 0 24 24">
	<path fill="#FFFFFF" d="M23.6,14.9C22,21.3,15.5,25.2,9,23.6C2.6,22-1.3,15.5,0.3,9.1C1.9,2.7,8.4-1.2,14.8,0.4
		C21.3,2,25.2,8.5,23.6,14.9L23.6,14.9L23.6,14.9z"/>
	<polygon fill="#343434" points="11.9,1.2 11.8,1.7 11.8,15.9 11.9,16.1 18.5,12.2"/>
	<polygon fill="#8C8C8C" points="11.9,1.2 5.3,12.2 11.9,16.1 11.9,9.2"/>
	<polygon fill="#3C3C3B" points="11.9,17.3 11.8,17.4 11.8,22.5 11.9,22.7 18.5,13.4"/>
	<polygon fill="#8C8C8C" points="11.9,22.7 11.9,17.3 5.3,13.4"/>
	<polygon fill="#141414" points="11.9,16.1 18.5,12.2 11.9,9.2"/>
	<polygon fill="#393939" points="5.3,12.2 11.9,16.1 11.9,9.2"/>
	<path fill="#FFFFFF" d="M20,24c2.2,0,4-1.8,4-4s-1.8-4-4-4s-4,1.8-4,4S17.8,24,20,24z"/>
	<path fill-rule="evenodd" clip-rule="evenodd" d="M20,23.5c1.9,0,3.5-1.6,3.5-3.5s-1.6-3.5-3.5-3.5s-3.5,1.6-3.5,3.5
		S18.1,23.5,20,23.5z M24,20c0,2.2-1.8,4-4,4s-4-1.8-4-4s1.8-4,4-4S24,17.8,24,20z"/>
	<path d="M20.3,19.6l1.4-1.4l-0.5-0.5L20,18.8l-1.1-1.1l-0.5,0.5l1.4,1.4c0.1,0.1,0.2,0.1,0.3,0.1S20.2,19.7,20.3,19.6L20.3,19.6z"
		/>
	<path d="M22.3,21.1L21.2,20l1.1-1.1l-0.5-0.5l-1.4,1.4c-0.1,0.1-0.1,0.4,0,0.5l1.4,1.4L22.3,21.1z"/>
	<path d="M20,21.2l1.1,1.1l0.5-0.5l-1.4-1.4c-0.1-0.1-0.4-0.1-0.5,0l-1.4,1.4l0.5,0.5L20,21.2L20,21.2z"/>
	<path d="M19.6,20.3c0.1-0.1,0.1-0.2,0.1-0.3c0-0.1,0-0.2-0.1-0.3l-1.4-1.4l-0.5,0.5l1.1,1.1l-1.1,1.1l0.5,0.5L19.6,20.3z"/>
</svg>
