<svg version="1.1" xmlns="http://www.w3.org/2000/svg" viewBox="0 0 24 24">
	<path fill="#FFFFFF" d="M23.6,14.9C22,21.3,15.5,25.2,9,23.6C2.6,22-1.3,15.5,0.3,9.1C1.9,2.7,8.4-1.2,14.8,0.4
		C21.3,2,25.2,8.5,23.6,14.9L23.6,14.9L23.6,14.9z"/>
			<path id="Shape" fill="#5A5564" d="M19.6,5l-0.7,0.7c3.3,3.6,3.3,9,0,12.6l0.7,0.7C23.2,15,23.2,9,19.6,5L19.6,5z"/>
			<path id="Shape-2" fill="#5A5564" d="M5.7,5.1c3.6-3.3,9-3.3,12.6,0L19,4.4C15,0.8,9,0.8,5,4.4L5.7,5.1z"/>
			<path id="Shape-3" fill="#5A5564" d="M5.1,18.3c-3.3-3.6-3.3-9,0-12.6L4.4,5C0.8,9,0.8,15,4.4,19L5.1,18.3z"/>
			<path id="Shape-4" fill="#5A5564" d="M18.3,18.9c-3.6,3.3-9,3.3-12.6,0L5,19.6c3.9,3.6,10,3.6,13.9,0L18.3,18.9z"/>
			<path id="Shape-5" fill="#F09242" d="M16.2,9.8c-0.1-1.4-1.3-1.8-2.8-2V5.9h-1.2v1.9c-0.3,0-0.6,0-0.9,0V5.9h-1.2v1.9H7.8v1.2
				c0,0,0.9,0,0.8,0c0.3,0,0.6,0.2,0.7,0.5v5.2c0,0.1-0.1,0.2-0.1,0.3c-0.1,0.1-0.2,0.1-0.3,0.1c0,0-0.8,0-0.8,0l-0.2,1.4h2.3v1.9
				h1.2v-1.9h0.9v1.9h1.2v-1.9c2-0.1,3.3-0.6,3.5-2.4c0.1-1.5-0.6-2.1-1.7-2.4C15.8,11.4,16.3,10.8,16.2,9.8z M14.5,13.9
				c0,1.4-2.5,1.3-3.3,1.3v-2.6C12.1,12.6,14.5,12.4,14.5,13.9z M14,10.3c0,1.3-2.1,1.2-2.7,1.2V9.2C11.9,9.2,14,9,14,10.3z"/>
			<path id="Shape-6" fill="#282138" d="M12,24C5.4,24,0,18.6,0,12S5.4,0,12,0c6.6,0,12,5.4,12,12C24,18.6,18.6,24,12,24
				C12,24,12,24,12,24z M12,0.9c-6.1,0-11.1,5-11,11.1c0,6.1,5,11.1,11.1,11c6.1,0,11-5,11-11.1C23.1,5.9,18.1,0.9,12,0.9
				C12,0.9,12,0.9,12,0.9z"/>
	<path fill="#FFFFFF" d="M20,24c2.2,0,4-1.8,4-4s-1.8-4-4-4s-4,1.8-4,4S17.8,24,20,24z"/>
	<path fill-rule="evenodd" clip-rule="evenodd" d="M20,23.5c1.9,0,3.5-1.6,3.5-3.5s-1.6-3.5-3.5-3.5s-3.5,1.6-3.5,3.5
		S18.1,23.5,20,23.5z M24,20c0,2.2-1.8,4-4,4s-4-1.8-4-4s1.8-4,4-4S24,17.8,24,20z"/>
	<path d="M20.3,19.6l1.4-1.4l-0.5-0.5L20,18.8l-1.1-1.1l-0.5,0.5l1.4,1.4c0.1,0.1,0.2,0.1,0.3,0.1S20.2,19.7,20.3,19.6L20.3,19.6z"
		/>
	<path d="M22.3,21.1L21.2,20l1.1-1.1l-0.5-0.5l-1.4,1.4c-0.1,0.1-0.1,0.4,0,0.5l1.4,1.4L22.3,21.1z"/>
	<path d="M20,21.2l1.1,1.1l0.5-0.5l-1.4-1.4c-0.1-0.1-0.4-0.1-0.5,0l-1.4,1.4l0.5,0.5L20,21.2L20,21.2z"/>
	<path d="M19.6,20.3c0.1-0.1,0.1-0.2,0.1-0.3c0-0.1,0-0.2-0.1-0.3l-1.4-1.4l-0.5,0.5l1.1,1.1l-1.1,1.1l0.5,0.5L19.6,20.3z"/>
</svg>
