<svg viewBox="0 0 48 48" fill="none" xmlns="http://www.w3.org/2000/svg">
  <line x1="3" y1="45.5" x2="45" y2="45.5" stroke="url(#paint0_linear_8870_50214)"></line>
  <path
    d="M23.9881 2C21.2317 1.99904 18.502 2.55898 15.9552 3.64783C13.4084 4.73668 11.0943 6.3331 9.1452 8.34586C7.19609 10.3586 5.65015 12.7483 4.59573 15.3782C3.5413 18.0082 2.99907 20.827 3 23.6735V44H45V23.6735C44.9962 17.9223 42.7805 12.4081 38.8402 8.34366C34.8998 4.27924 29.5575 1.9974 23.9881 2Z"
    fill="url(#paint1_linear_8870_50214)"
  ></path>
  <g filter="url(#filter0_f_8870_50214)" style="mix-blend-mode: overlay">
    <path
      d="M24 34C30.6274 34 36 28.6274 36 22C36 15.3726 30.6274 10 24 10C17.3726 10 12 15.3726 12 22C12 28.6274 17.3726 34 24 34Z"
      fill="url(#paint2_linear_8870_50214)"
    ></path>
  </g>
  <g filter="url(#filter1_f_8870_50214)">
    <path
      d="M3 25.4311C3.09098 25.4164 3.18279 25.4094 3.27468 25.4101C3.89544 25.3876 4.25811 24.9311 4.87887 24.8865C5.0979 24.864 5.61177 25.3879 5.81421 25.4356C5.88887 25.4465 5.96406 25.4521 6.03933 25.4524C6.11624 25.4528 6.19307 25.4462 6.26907 25.4328C6.67059 25.3879 6.64896 25.2494 7.18467 25.3373C7.26489 25.3373 7.54461 25.0944 7.61412 25.094C7.89216 25.0923 8.40729 24.7661 8.46273 24.7597C9.82542 24.6372 11.051 25.2988 12.282 24.7516C12.87 24.5183 13.8249 24.5061 14.1432 23.8072C16.5614 23.1826 17.3266 23.7213 18.5839 23.5665C19.3783 23.3858 20.27 23.3108 21.0073 23.0312C21.7318 22.7564 22.2463 21.8791 22.9139 21.5348C22.9464 21.4978 22.9464 21.4606 22.9792 21.4238C23.3708 21.2199 23.828 21.0895 24.2199 20.9052C24.5918 20.6946 24.9129 20.8471 25.3104 20.6406C25.428 20.5795 25.6409 20.5358 25.702 20.4369C25.702 20.3047 26.2789 19.0494 26.424 19C26.865 19.1208 27.2319 18.9616 27.6758 19.0919C28.1198 19.2223 28.5698 19.8682 29.035 20.0107C30.0761 20.33 30.4522 20.9045 31.6778 20.6731C32.2074 21.2223 32.5128 20.7022 33.035 20.8319C33.1331 20.8505 33.5953 21.5365 33.7587 21.6475C34.311 22.0747 34.8839 22.2108 35.4257 22.8175C35.9763 23.4331 36.016 23.3982 36.0538 23.3982C36.2167 23.4352 36.3142 23.1231 36.445 23.1594C37.2535 23.4545 38.0043 23.8024 38.9129 23.9338C39.8451 24.0687 40.9934 23.9287 41.8651 24.2334C42.3723 24.4108 42.6211 24.7699 43.0733 24.9927C43.6004 25.252 44.3133 25.4184 45 25.5376V31H3V25.4311Z"
      fill="url(#paint3_linear_8870_50214)"
    ></path>
  </g>
  <path
    d="M45 22.9419C44.8615 22.8508 44.7185 22.7794 44.5725 22.7285C44.5114 22.6721 44.4479 22.6218 44.3835 22.5757C44.2121 22.4528 44.0299 22.3692 43.8507 22.2838C43.6899 22.2067 43.5618 22.3551 43.4177 22.4397C43.3987 22.4508 43.3793 22.4603 43.3596 22.468C43.1162 22.4391 42.873 22.4198 42.6443 22.406C42.5291 22.3602 42.4169 22.2972 42.2987 22.2656C42.239 22.2498 42.1799 22.2287 42.1217 22.2022C42.0715 22.1792 42.028 22.1313 41.9747 22.1224C41.8697 22.1045 41.7513 22.1988 41.648 22.2256C41.5062 22.2631 41.3628 22.2811 41.2192 22.2797C41.086 22.2769 40.9544 22.2318 40.8221 22.2108C40.7253 22.1954 40.6278 22.2081 40.5308 22.2108L40.4636 22.2139C40.3322 22.1355 40.2043 22.0418 40.073 21.9603C39.9829 21.9052 39.8966 21.8344 39.8158 21.7489C39.735 21.6618 39.6705 21.5383 39.5968 21.4367C39.5306 21.3448 39.4473 21.2897 39.3868 21.1885C39.3412 21.1132 39.3028 21.0268 39.2364 21.0058C39.1086 20.9662 38.9987 21.1386 38.9112 21.2632C38.8844 21.3023 38.8563 21.3391 38.8272 21.3734C38.8102 21.3927 38.7623 21.4126 38.7717 21.4247C38.7266 21.3675 38.7121 21.3011 38.6457 21.2928C38.5 21.2746 38.3917 21.4935 38.2697 21.5906C38.1624 21.6759 38.0452 21.7317 37.9465 21.836C37.7556 21.9122 37.5608 21.9583 37.3646 21.9737C37.2424 21.9802 37.1855 22.1114 37.0786 22.183C37.0414 22.2081 36.9106 22.2745 36.8308 22.267C36.8095 22.2399 36.7871 22.2154 36.7636 22.1936H36.7615C36.7543 22.1733 36.7432 22.1576 36.7298 22.1491C36.7164 22.1405 36.7017 22.1398 36.688 22.1468C36.6327 22.1206 36.5753 22.1078 36.5177 22.109C36.5082 22.1093 36.4988 22.1128 36.4902 22.1192C36.4815 22.1257 36.4738 22.135 36.4674 22.1465C36.461 22.158 36.4561 22.1716 36.4529 22.1863C36.4498 22.201 36.4486 22.2166 36.4493 22.2322C36.4385 22.2356 36.4286 22.2438 36.4205 22.256C36.4125 22.2681 36.4066 22.2837 36.4037 22.301C36.3422 22.6149 36.1849 22.7802 36.0301 22.955C36.0195 22.9447 36.0073 22.9392 35.995 22.9392C35.9826 22.9392 35.9704 22.9447 35.9598 22.955C35.9575 22.9437 35.9552 22.9326 35.9533 22.9206C35.9472 22.8862 35.9426 22.8518 35.9358 22.8173C35.9201 22.7368 35.8592 22.6852 35.812 22.7354C35.7173 22.8363 35.6618 22.9901 35.5847 23.1206C35.4982 23.2676 35.3416 23.2882 35.2244 23.3106C35.135 23.3278 35.0354 23.2328 34.9514 23.2855C34.9048 23.3126 34.8599 23.3472 34.8174 23.3887C34.7261 23.409 34.7324 23.4772 34.7173 23.5474C34.712 23.5609 34.7071 23.575 34.7028 23.5894C34.702 23.5923 34.7013 23.5953 34.7007 23.5983C34.6955 23.6094 34.6895 23.6193 34.6828 23.628C34.5734 23.5316 34.5006 23.3385 34.3223 23.4558C34.2028 23.5172 34.078 23.5465 33.9527 23.5426C33.9054 23.5162 33.8544 23.5121 33.8057 23.5309C33.4406 23.6593 33.2579 24.2055 32.8564 24.1092C32.8055 24.1009 32.7554 24.0902 32.7058 24.0778C32.6283 24.0458 32.5437 24.0345 32.4721 24.0035C32.315 23.9346 32.1804 23.7908 32.0332 23.6851C31.9037 23.5922 31.7789 23.6101 31.6422 23.6221C31.4779 23.5392 31.3101 23.4764 31.1401 23.4342C31.0811 23.4083 30.7111 23.7887 30.7065 23.8617C30.6758 23.9343 30.6059 24.0173 30.5108 24.1057C30.5089 24.1052 30.5069 24.1052 30.5049 24.1057C30.4601 24.1151 30.4162 24.1338 30.3743 24.1615C30.3138 24.1959 30.2567 24.2355 30.1943 24.2609C30.0625 24.315 29.9264 24.3346 29.7954 24.389C29.6425 24.452 29.535 24.6781 29.3739 24.6668C29.2129 24.6554 29.1169 24.77 29.0241 24.9669C28.9894 25.0409 28.9355 25.137 28.8706 25.1187C28.8057 25.1005 28.7389 25.1015 28.6927 25.1876C28.5564 25.4357 28.4048 25.6519 28.2097 25.7686C28.0191 25.8829 27.8181 25.8429 27.6235 25.7813C27.4676 25.7317 27.3018 25.6471 27.142 25.6781C27.1018 25.6552 27.0643 25.6214 27.0311 25.5779C26.9729 25.4987 26.9034 25.3831 26.8211 25.3831C26.7449 25.3831 26.6292 25.5727 26.5233 25.6736C26.5102 25.6539 26.4931 25.6428 26.4752 25.6423C26.4163 25.6408 26.3574 25.6451 26.2988 25.6553C26.2847 25.6571 26.2713 25.6656 26.2601 25.6798C26.2489 25.694 26.2404 25.7132 26.2359 25.7352L26.2333 25.728C26.2159 25.6643 26.1882 25.6096 26.1684 25.5373C26.1487 25.465 26.0966 25.465 26.0616 25.4915C25.9234 25.5948 25.8409 25.814 25.7298 25.9734C25.6638 26.0677 25.5746 26.0887 25.4929 26.1231C25.4076 26.1623 25.3255 26.2187 25.2487 26.2911C25.117 26.4078 24.9887 26.2673 24.8604 26.3689C24.7107 26.4873 24.5719 26.6549 24.4113 26.7337C24.4054 26.7363 24.3999 26.7411 24.3955 26.7479C24.391 26.7547 24.3876 26.7632 24.3856 26.7726C24.1597 26.8556 23.9396 26.9034 23.7292 26.8869C23.5555 26.8859 23.3819 26.8652 23.2099 26.825C23.1518 26.7864 23.0915 26.7561 23.0373 26.7217C22.9676 26.678 22.9113 26.5978 22.8433 26.5537C22.7786 26.5121 22.712 26.5258 22.6446 26.5097C22.5928 26.4973 22.5632 26.4198 22.5094 26.4102C22.4815 26.4064 22.4534 26.405 22.4254 26.4061C22.3918 26.4061 22.3393 26.3448 22.3089 26.3197C22.2341 26.2592 22.1574 26.2054 22.0791 26.1586C22.0618 26.1042 22.033 26.062 21.9981 26.0398C21.9351 25.9982 21.8301 26.0426 21.7633 26.0426C21.7161 26.0426 21.6692 26.0384 21.6224 26.0336C21.3865 25.8564 21.1582 25.6533 20.9389 25.4257C20.9084 25.3517 20.8822 25.2664 20.8339 25.2037C20.7015 25.1819 20.6188 25.1131 20.5859 24.9972C20.4767 24.8206 20.2579 24.7563 20.1449 24.5996C19.8068 24.4826 19.3608 24.304 18.9665 24.1969C18.9181 24.1563 18.8679 24.1218 18.8163 24.0937C18.6095 23.9814 18.3334 24.0403 18.1975 23.703C18.1874 23.6754 18.172 23.654 18.1538 23.6419C18.1356 23.6299 18.1155 23.6279 18.0965 23.6362C18.0722 23.6507 18.0471 23.6613 18.0215 23.6679C17.9452 23.5897 17.8654 23.5206 17.783 23.4614C17.594 23.3116 17.4564 22.9915 17.246 22.9151C17.0465 22.8425 16.872 23.1185 16.7093 23.2562C16.7022 23.2621 16.6952 23.2676 16.6883 23.2727C16.6458 23.2853 16.6037 23.3019 16.5623 23.3223H16.5545C16.2862 23.2703 16.0143 23.2967 15.7515 23.4001C15.6279 23.386 15.5159 23.3027 15.3908 23.3574C15.291 23.4008 15.1959 23.471 15.0968 23.5216C15.0321 23.556 14.8805 23.6441 14.8295 23.5268C14.8198 23.501 14.8044 23.4824 14.7865 23.4747C14.7687 23.467 14.7497 23.4709 14.7335 23.4854C14.4857 23.7164 14.2793 24.0658 13.9904 24.157C13.8581 24.1986 13.7117 24.1405 13.5855 24.2286C13.5423 24.2601 13.5013 24.299 13.4631 24.3446C13.3731 24.3781 13.2853 24.4253 13.2006 24.4854C12.5515 24.6379 11.8235 24.6182 11.2084 24.4933C11.1699 24.4659 11.1303 24.4423 11.09 24.4227C11.0159 24.3883 10.9374 24.3763 10.8687 24.3164C10.8267 24.2795 10.7948 24.232 10.7469 24.2131C10.6394 24.1728 10.5409 24.2785 10.4433 24.1876C10.3626 24.1122 10.2742 24.0906 10.1955 24.0269C10.1857 24.0019 10.1722 23.9815 10.1562 23.9677C10.1455 23.9592 10.1342 23.9526 10.1226 23.9481C10.118 23.9412 10.1134 23.9346 10.1087 23.9271C10.0957 23.9065 10.0786 23.8942 10.0605 23.8922C10.0424 23.8903 10.0245 23.8988 10.0098 23.9164C10.0004 23.912 9.99136 23.906 9.98275 23.8985C9.97003 23.8866 9.95518 23.8823 9.94075 23.8864C9.93375 23.8532 9.92188 23.8232 9.90617 23.7992C9.89046 23.7752 9.8714 23.7579 9.85066 23.7488C9.77906 23.7212 9.73097 23.7629 9.67931 23.8427C9.65558 23.8796 9.63332 23.9161 9.6075 23.9494C9.59301 23.968 9.57789 23.9839 9.56256 24.0021L9.54009 24.0245C9.51804 24.0472 9.51384 24.0468 9.52749 24.0245C9.48381 23.9594 9.42565 23.9212 9.36874 23.9701C9.29314 24.0362 9.18626 24.0224 9.11507 23.9567C9.0063 23.8565 8.89921 24.0307 8.79799 24.1315C8.57498 24.1229 8.35114 24.1157 8.12897 24.1043C8.04808 24.0453 7.96256 24.0049 7.87488 23.9845C7.82238 23.9735 7.76989 23.9697 7.71802 23.9532C7.65964 23.935 7.60841 23.8713 7.55906 23.8207C7.47674 23.7371 7.36419 23.7691 7.33899 23.5911C7.32555 23.4954 7.255 23.4841 7.21531 23.5381C7.18675 23.5763 7.15693 23.6118 7.12732 23.6483C7.04333 23.556 6.95933 23.4607 6.87534 23.3691C6.86719 23.3541 6.85675 23.3429 6.8451 23.3367C6.8094 23.2985 6.7737 23.261 6.73716 23.2256C6.72467 23.2142 6.70997 23.2111 6.69613 23.217C6.68229 23.2229 6.67036 23.2373 6.66283 23.2572C6.65464 23.2751 6.64645 23.2917 6.63805 23.3096C6.63607 23.3117 6.63418 23.314 6.63238 23.3164C6.54461 23.3199 6.45074 23.4166 6.38039 23.4823C6.31021 23.5448 6.238 23.601 6.16411 23.6507L6.11854 23.6465C6.11329 23.6407 6.10762 23.6355 6.10237 23.6293C6.0358 23.5512 5.97638 23.4645 5.89826 23.4156C5.79537 23.3516 5.68827 23.325 5.57908 23.2999C5.47975 23.2765 5.39261 23.2486 5.30609 23.1622C5.23449 23.0934 5.16876 23.0187 5.0896 22.9729C5.01715 22.9309 4.93357 22.9361 4.8563 22.9351C4.70637 22.8401 4.55727 22.7402 4.41091 22.6284C4.33928 22.5964 4.26373 22.5964 4.1921 22.6284C3.81077 22.8521 3.42943 23.0029 3 23.123V29H45V22.9419ZM39.2396 21.3569C39.2421 21.351 39.2448 21.3452 39.2478 21.339C39.253 21.3479 39.2585 21.3565 39.264 21.3651L39.2396 21.3569Z"
    fill="url(#paint4_linear_8870_50214)"
  ></path>
  <path
    d="M33.8884 37.8989L39.059 30.8019L28.7178 30.8019L33.8884 37.8989Z"
    fill="url(#paint5_linear_8870_50214)"
  ></path>
  <path
    d="M33.8884 37.8989L39.059 30.8019L28.7178 30.8019L33.8884 37.8989Z"
    fill="url(#paint6_linear_8870_50214)"
  ></path>
  <path
    d="M13.2053 37.8989L8.0347 30.8019L18.376 30.8019L13.2053 37.8989Z"
    fill="url(#paint7_linear_8870_50214)"
  ></path>
  <path
    d="M13.2053 37.8989L8.0347 30.8019L18.376 30.8019L13.2053 37.8989Z"
    fill="url(#paint8_linear_8870_50214)"
  ></path>
  <path
    d="M18.3753 30.8014L13.2046 37.8983L23.5459 37.8983L18.3753 30.8014Z"
    fill="url(#paint9_linear_8870_50214)"
  ></path>
  <path
    d="M18.3753 30.8014L13.2046 37.8983L23.5459 37.8983L18.3753 30.8014Z"
    fill="url(#paint10_linear_8870_50214)"
  ></path>
  <path
    d="M28.718 30.7106L23.5474 37.8075L33.8887 37.8075L28.718 30.7106Z"
    fill="url(#paint11_linear_8870_50214)"
  ></path>
  <path
    d="M28.718 30.7106L23.5474 37.8075L33.8887 37.8075L28.718 30.7106Z"
    fill="url(#paint12_linear_8870_50214)"
  ></path>
  <path
    d="M23.5471 37.8989L18.3765 30.8019L28.7178 30.8019L23.5471 37.8989Z"
    fill="url(#paint13_linear_8870_50214)"
  ></path>
  <path
    d="M23.5471 37.8989L18.3765 30.8019L28.7178 30.8019L23.5471 37.8989Z"
    fill="url(#paint14_linear_8870_50214)"
  ></path>
  <path
    d="M23.5469 11.2394L28.7175 30.8014L39.0588 30.8014L23.5469 11.2394Z"
    fill="url(#paint15_linear_8870_50214)"
  ></path>
  <path
    d="M14.4981 36.1695L32.5953 36.1695L36.4733 30.8013L23.5467 14.2418L10.6201 30.8013L14.4981 36.1695Z"
    fill="url(#paint16_radial_8870_50214)"
  ></path>
  <path
    d="M23.5469 11.2394L18.3763 30.8014L7.93555 30.8014L23.5469 11.2394Z"
    fill="url(#paint17_linear_8870_50214)"
    fill-opacity="0.3"
  ></path>
  <path
    d="M23.5466 11.2394L28.7173 30.8014L18.376 30.8014L23.5466 11.2394Z"
    fill="url(#paint18_linear_8870_50214)"
  ></path>
  <g style="mix-blend-mode: color-burn">
    <path
      fill-rule="evenodd"
      clip-rule="evenodd"
      d="M23.5469 11.2394L23.5468 11.2399L39.0583 30.8014H36.4735L36.4731 30.802H39.0586L33.888 37.8989L33.8214 37.8075L23.6133 37.8075L23.5467 37.8989L23.5463 37.8983L13.2057 37.8983L13.2053 37.8989L8.0347 30.8019H10.6208L10.6204 30.8014H7.93555L23.5465 11.2399L23.5465 11.2398L23.5464 11.2394L23.5466 11.2396L23.5466 11.2394L23.5467 11.2396L23.5469 11.2394Z"
      fill="url(#paint19_linear_8870_50214)"
    ></path>
  </g>
  <defs>
    <filter
      id="filter0_f_8870_50214"
      x="4"
      y="2"
      width="40"
      height="40"
      filterUnits="userSpaceOnUse"
      color-interpolation-filters="sRGB"
    >
      <feFlood flood-opacity="0" result="BackgroundImageFix"></feFlood>
      <feBlend mode="normal" in="SourceGraphic" in2="BackgroundImageFix" result="shape"></feBlend>
      <feGaussianBlur stdDeviation="4" result="effect1_foregroundBlur_8870_50214"></feGaussianBlur>
    </filter>
    <filter
      id="filter1_f_8870_50214"
      x="0"
      y="16"
      width="48"
      height="18"
      filterUnits="userSpaceOnUse"
      color-interpolation-filters="sRGB"
    >
      <feFlood flood-opacity="0" result="BackgroundImageFix"></feFlood>
      <feBlend mode="normal" in="SourceGraphic" in2="BackgroundImageFix" result="shape"></feBlend>
      <feGaussianBlur
        stdDeviation="1.5"
        result="effect1_foregroundBlur_8870_50214"
      ></feGaussianBlur>
    </filter>
    <linearGradient
      id="paint0_linear_8870_50214"
      x1="45"
      y1="47.4"
      x2="3"
      y2="47.4"
      gradientUnits="userSpaceOnUse"
    >
      <stop stop-color="#D14549"></stop>
      <stop offset="1" stop-color="#72C1BF"></stop>
    </linearGradient>
    <linearGradient
      id="paint1_linear_8870_50214"
      x1="24"
      y1="36.6384"
      x2="24"
      y2="-0.106119"
      gradientUnits="userSpaceOnUse"
    >
      <stop offset="0.15625" stop-color="#948DF2" stop-opacity="0"></stop>
      <stop offset="1" stop-color="#ED4542"></stop>
    </linearGradient>
    <linearGradient
      id="paint2_linear_8870_50214"
      x1="24"
      y1="34"
      x2="24"
      y2="10"
      gradientUnits="userSpaceOnUse"
    >
      <stop stop-color="#A93E4D"></stop>
      <stop offset="0.9997" stop-color="#F15A24"></stop>
    </linearGradient>
    <linearGradient
      id="paint3_linear_8870_50214"
      x1="24"
      y1="19"
      x2="24"
      y2="31"
      gradientUnits="userSpaceOnUse"
    >
      <stop stop-color="#EF4136"></stop>
      <stop offset="1" stop-color="#EF4136" stop-opacity="0"></stop>
    </linearGradient>
    <linearGradient
      id="paint4_linear_8870_50214"
      x1="24"
      y1="21"
      x2="24"
      y2="29"
      gradientUnits="userSpaceOnUse"
    >
      <stop stop-color="#15325C"></stop>
      <stop offset="1" stop-color="#15325C" stop-opacity="0"></stop>
    </linearGradient>
    <linearGradient
      id="paint5_linear_8870_50214"
      x1="35.6186"
      y1="29.428"
      x2="28.9942"
      y2="38.4556"
      gradientUnits="userSpaceOnUse"
    >
      <stop stop-color="white" stop-opacity="0"></stop>
      <stop offset="1" stop-color="white"></stop>
    </linearGradient>
    <linearGradient
      id="paint6_linear_8870_50214"
      x1="35.6186"
      y1="29.428"
      x2="28.9942"
      y2="38.4556"
      gradientUnits="userSpaceOnUse"
    >
      <stop stop-color="white" stop-opacity="0"></stop>
      <stop offset="1" stop-color="white"></stop>
    </linearGradient>
    <linearGradient
      id="paint7_linear_8870_50214"
      x1="11.4752"
      y1="29.4281"
      x2="18.0996"
      y2="38.4556"
      gradientUnits="userSpaceOnUse"
    >
      <stop stop-color="white" stop-opacity="0"></stop>
      <stop offset="1" stop-color="white"></stop>
    </linearGradient>
    <linearGradient
      id="paint8_linear_8870_50214"
      x1="11.4752"
      y1="29.4281"
      x2="18.0996"
      y2="38.4556"
      gradientUnits="userSpaceOnUse"
    >
      <stop stop-color="white" stop-opacity="0"></stop>
      <stop offset="1" stop-color="white"></stop>
    </linearGradient>
    <linearGradient
      id="paint9_linear_8870_50214"
      x1="16.6451"
      y1="39.2722"
      x2="23.2695"
      y2="30.2446"
      gradientUnits="userSpaceOnUse"
    >
      <stop stop-color="white" stop-opacity="0"></stop>
      <stop offset="1" stop-color="white"></stop>
    </linearGradient>
    <linearGradient
      id="paint10_linear_8870_50214"
      x1="16.6451"
      y1="39.2722"
      x2="23.2695"
      y2="30.2446"
      gradientUnits="userSpaceOnUse"
    >
      <stop stop-color="white" stop-opacity="0"></stop>
      <stop offset="1" stop-color="white"></stop>
    </linearGradient>
    <linearGradient
      id="paint11_linear_8870_50214"
      x1="26.9879"
      y1="39.1814"
      x2="33.6122"
      y2="30.1538"
      gradientUnits="userSpaceOnUse"
    >
      <stop stop-color="white" stop-opacity="0"></stop>
      <stop offset="1" stop-color="white"></stop>
    </linearGradient>
    <linearGradient
      id="paint12_linear_8870_50214"
      x1="26.9879"
      y1="39.1814"
      x2="33.6122"
      y2="30.1538"
      gradientUnits="userSpaceOnUse"
    >
      <stop stop-color="white" stop-opacity="0"></stop>
      <stop offset="1" stop-color="white"></stop>
    </linearGradient>
    <linearGradient
      id="paint13_linear_8870_50214"
      x1="21.817"
      y1="29.4281"
      x2="28.4413"
      y2="38.4556"
      gradientUnits="userSpaceOnUse"
    >
      <stop stop-color="white" stop-opacity="0"></stop>
      <stop offset="1" stop-color="white"></stop>
    </linearGradient>
    <linearGradient
      id="paint14_linear_8870_50214"
      x1="21.817"
      y1="29.4281"
      x2="28.4413"
      y2="38.4556"
      gradientUnits="userSpaceOnUse"
    >
      <stop stop-color="white" stop-opacity="0"></stop>
      <stop offset="1" stop-color="white"></stop>
    </linearGradient>
    <linearGradient
      id="paint15_linear_8870_50214"
      x1="2680.12"
      y1="40721.7"
      x2="2844.49"
      y2="40813.1"
      gradientUnits="userSpaceOnUse"
    >
      <stop stop-color="white" stop-opacity="0.49"></stop>
      <stop offset="1" stop-color="white"></stop>
    </linearGradient>
    <radialGradient
      id="paint16_radial_8870_50214"
      cx="0"
      cy="0"
      r="1"
      gradientUnits="userSpaceOnUse"
      gradientTransform="translate(4720.3 45851.2) rotate(26.8672) scale(300.828 275.479)"
    >
      <stop stop-color="white" stop-opacity="0"></stop>
      <stop offset="0.859375" stop-color="#FFFEFE" stop-opacity="0.55"></stop>
    </radialGradient>
    <linearGradient
      id="paint17_linear_8870_50214"
      x1="21.3593"
      y1="11.6943"
      x2="15.4392"
      y2="31.5662"
      gradientUnits="userSpaceOnUse"
    >
      <stop stop-color="white" stop-opacity="0.79"></stop>
      <stop offset="1" stop-color="white"></stop>
    </linearGradient>
    <linearGradient
      id="paint18_linear_8870_50214"
      x1="6.99063"
      y1="25.4787"
      x2="29.2893"
      y2="19.2816"
      gradientUnits="userSpaceOnUse"
    >
      <stop stop-color="white" stop-opacity="0"></stop>
      <stop offset="1" stop-color="white"></stop>
    </linearGradient>
    <linearGradient
      id="paint19_linear_8870_50214"
      x1="11.7944"
      y1="27.2557"
      x2="34.2511"
      y2="16.721"
      gradientUnits="userSpaceOnUse"
    >
      <stop stop-color="#D53C35"></stop>
      <stop offset="1" stop-color="#01FBEC"></stop>
    </linearGradient>
  </defs>
</svg>
