<svg width="160" height="160" viewBox="0 0 160 160" fill="none" xmlns="http://www.w3.org/2000/svg">
<path opacity="0.1" d="M1.00805 87.991C1.00805 87.9951 1.00603 87.9991 1.00603 88.0052L4.8265 104.34C4.82851 104.352 4.84061 104.358 4.84464 104.366C4.84867 104.376 4.84061 104.389 4.84464 104.399L11.3519 119.903C11.3539 119.907 11.362 119.911 11.364 119.915C11.3701 119.929 11.3822 119.937 11.3902 119.951C11.3983 119.961 11.3923 119.975 11.4003 119.986L21.2338 132.803C21.2399 132.812 21.256 132.81 21.2621 132.82C21.2722 132.83 21.2702 132.844 21.2802 132.854L33.5121 143.837C33.5162 143.843 33.5202 143.847 33.5283 143.853L33.5323 143.857C33.5424 143.867 33.5565 143.861 33.5686 143.869C33.5847 143.881 33.5888 143.897 33.6029 143.907L47.8177 152.145C47.8298 152.153 47.8419 152.145 47.854 152.151C47.864 152.155 47.8681 152.17 47.8802 152.176L63.1237 157.544C63.1358 157.55 63.1438 157.54 63.1559 157.542C63.1741 157.546 63.1862 157.556 63.2023 157.558C63.2064 157.558 63.2084 157.564 63.2124 157.564L79.9304 159C79.9425 159 79.9486 158.992 79.9607 158.988C79.9728 158.992 79.9808 158.998 79.9929 159L96.7856 157.564C96.7896 157.564 96.7916 157.558 96.7977 157.556C96.8138 157.556 96.8239 157.546 96.838 157.542C96.8521 157.54 96.8642 157.55 96.8763 157.544L112.081 152.176C112.094 152.17 112.096 152.155 112.108 152.151C112.12 152.145 112.132 152.153 112.144 152.145L126.389 143.909C126.409 143.901 126.415 143.881 126.431 143.869C126.441 143.861 126.454 143.867 126.462 143.857L138.679 132.854C138.689 132.844 138.687 132.83 138.696 132.82C138.704 132.81 138.718 132.812 138.726 132.803L148.559 119.986C148.565 119.975 148.561 119.961 148.569 119.951C148.575 119.939 148.588 119.931 148.596 119.917C148.598 119.913 148.606 119.911 148.608 119.905L155.149 104.401C155.155 104.391 155.147 104.379 155.149 104.366C155.155 104.358 155.167 104.352 155.169 104.34L158.99 88.0052C158.99 87.9991 158.988 87.9951 158.988 87.9911C158.99 87.9729 158.986 87.9608 158.986 87.9487C158.988 87.9346 159 87.9265 159 87.9124L158.584 71.7286C158.584 71.7145 158.57 71.7085 158.57 71.6923C158.566 71.6843 158.576 71.6742 158.574 71.6621L155.178 55.6618L155.171 55.6356L155.169 55.6275C155.167 55.6134 155.149 55.6033 155.145 55.5892C155.143 55.5791 155.149 55.5671 155.145 55.555L155.143 55.5509L155.143 55.5469L148.452 40.5045C148.446 40.4965 148.432 40.4985 148.428 40.4884C148.42 40.4763 148.428 40.4602 148.418 40.4461L139.226 27.1744C139.222 27.1643 139.208 27.1703 139.202 27.1623C139.19 27.1461 139.186 27.128 139.172 27.1179C139.168 27.1159 139.168 27.1098 139.166 27.1058L126.458 16.1028C126.448 16.0968 126.433 16.0988 126.423 16.0907C126.417 16.0847 126.417 16.0726 126.407 16.0665L112.035 7.37066C112.015 7.35856 111.993 7.36058 111.977 7.35452C111.965 7.34848 111.962 7.33436 111.95 7.33235L96.4427 2.72022C96.4225 2.71215 96.4023 2.71215 96.3862 2.71014C96.3801 2.71014 96.3801 2.70408 96.3761 2.70408L79.999 1.00202C79.9849 1.00202 79.9728 1.00001 79.9607 1.00001C79.9486 1.00001 79.9345 1.00202 79.9224 1.00202L63.6219 2.70408C63.6158 2.70408 63.6159 2.71014 63.6118 2.71014C63.5916 2.71215 63.5735 2.71215 63.5553 2.72022L48.0476 7.33234C48.0355 7.33436 48.0335 7.34847 48.0214 7.35451C48.0012 7.36057 47.981 7.35856 47.9629 7.37066L33.5908 16.0665C33.5807 16.0726 33.5807 16.0867 33.5747 16.0907C33.5646 16.0988 33.5525 16.0968 33.5424 16.1028L20.7982 27.1058C20.7941 27.1098 20.7941 27.1138 20.7921 27.1159C20.778 27.13 20.774 27.1481 20.7578 27.1622C20.7538 27.1703 20.7397 27.1683 20.7336 27.1744L11.5819 40.4461C11.5718 40.4622 11.5799 40.4783 11.5718 40.4884C11.5677 40.4985 11.5536 40.4965 11.5476 40.5045L4.85676 55.5469C4.85676 55.5469 4.85676 55.5469 4.85676 55.5509L4.85475 55.5549C4.84869 55.567 4.85676 55.5791 4.85475 55.5892C4.84869 55.6033 4.83254 55.6134 4.83053 55.6275L4.82852 55.6356L4.82246 55.6618L1.42561 71.6621C1.42359 71.6742 1.43165 71.6843 1.42963 71.6923C1.42963 71.7085 1.41552 71.7145 1.41552 71.7286L0.999991 87.9124C0.999991 87.9265 1.01209 87.9346 1.01411 87.9467C1.01006 87.9608 1.00603 87.9749 1.00805 87.991ZM12.191 40.8333L16.9313 33.9604L8.72764 48.6257L12.191 40.8333ZM33.9821 16.6776L40.9594 12.4527L27.7915 22.0197L33.9821 16.6776ZM63.7167 3.42806L72.1281 2.54881L55.7147 5.80773L63.7167 3.42806ZM96.2611 3.42806L104.297 5.82186L87.773 2.54679L96.2611 3.42806ZM125.99 16.6715L132.204 22.054L118.962 12.4184L125.99 16.6715ZM147.789 40.8333L151.289 48.7043L142.98 33.8899L147.789 40.8333ZM138.159 132.328L131.902 137.964L143.194 125.763L138.159 132.328ZM111.797 151.494L103.94 154.265L119.16 147.235L111.797 151.494ZM79.9506 158.266L71.7066 157.556L88.2329 157.556L79.9506 158.266ZM48.1444 151.494L40.7294 147.192L56.096 154.293L48.1444 151.494ZM21.7825 132.328L16.7034 125.709L28.1103 138.013L21.7825 132.328ZM79.5875 107.779L53.6593 88.953L79.5875 80.481L79.5875 107.779ZM80.3157 80.481L106.319 88.953L80.3157 107.779L80.3157 80.481ZM106.776 89.5136L108.158 118.771L80.711 108.39L106.776 89.5136ZM80.5376 79.7893L96.6182 57.7007L106.542 88.2613L80.5376 79.7893ZM79.9506 79.3637L63.9446 57.2792L96.0312 57.2792L79.9506 79.3637ZM63.9063 56.5512L79.9506 32.0527L96.0695 56.5512L63.9063 56.5512ZM79.3656 79.7893L53.4374 88.2613L63.3597 57.7047L79.3656 79.7893ZM79.1942 108.39L51.7833 118.767L53.1994 89.5136L79.1942 108.39ZM79.5875 109.017L79.5875 133.531L52.2856 119.358L79.5875 109.017ZM80.3157 109.017L107.656 119.356L80.3157 133.529L80.3157 109.017ZM107.493 89.3342L130.821 96.8543L108.868 118.479L107.493 89.3342ZM97.2959 57.4385L125.578 65.1361L107.242 88.0737L97.2959 57.4385ZM80.701 31.8692L111.188 36.4268L96.7573 56.2789L80.701 31.8692ZM63.2205 56.2769L48.7899 36.4268L79.2043 31.8692L63.2205 56.2769ZM52.7334 88.0758L34.3997 65.1381L62.6819 57.4405L52.7334 88.0758ZM51.0753 118.479L29.1592 96.8543L52.4833 89.3342L51.0753 118.479ZM79.0146 134.05L53.2034 142.447L51.7975 119.921L79.0146 134.05ZM108.146 119.923L106.774 142.449L80.8865 134.052L108.146 119.923ZM131.137 97.5622L131.137 124.735L109.255 119.114L131.137 97.5622ZM107.72 88.6445L125.984 65.7936L131.047 96.1646L107.72 88.6445ZM97.3463 56.7024L111.777 36.8503L125.522 64.3698L97.3463 56.7024ZM80.6425 31.125L95.0266 13.6828L111.033 35.6686L80.6425 31.125ZM48.9452 35.6686L64.9149 13.6828L79.2607 31.125L48.9452 35.6686ZM62.6315 56.7024L34.4562 64.3698L48.1989 36.8503L62.6315 56.7024ZM52.2594 88.6444L28.9353 96.1646L33.9983 65.7936L52.2594 88.6444ZM50.686 119.114L28.8425 124.735L28.8425 97.5642L50.686 119.114ZM51.0632 119.766L52.4611 142.193L29.3125 125.364L51.0632 119.766ZM79.5875 134.629L79.5875 151.101L54.0546 142.935L79.5875 134.629ZM80.3157 134.627L105.923 142.937L80.3157 151.103L80.3157 134.627ZM108.88 119.766L130.665 125.364L107.515 142.193L108.88 119.766ZM131.868 97.1951L147.521 102.291L131.868 124.073L131.868 97.1951ZM126.671 65.5052L147.688 73.7917L131.718 95.7774L126.671 65.5052ZM112.545 36.7697L138.357 45.1671L126.244 64.1964L112.545 36.7697ZM112.42 35.965L122.084 22.7034L137.953 44.2697L112.42 35.965ZM111.835 35.5415L96.0009 13.7917L121.497 22.2799L111.835 35.5415ZM79.9506 30.8165L65.6693 13.4549L94.2702 13.455L79.9506 30.8165ZM48.1444 35.5415L38.4804 22.2799L63.9426 13.7917L48.1444 35.5415ZM47.5575 35.965L21.9903 44.2717L37.8954 22.7054L47.5575 35.965ZM47.4324 36.7677L33.734 64.1964L21.5848 45.1671L47.4324 36.7677ZM28.2595 95.7814L12.2516 73.7937L33.3064 65.5052L28.2595 95.7814ZM28.1123 124.073L12.4593 102.291L28.1123 97.1951L28.1123 124.073ZM27.5354 124.519L12.0498 119.497L12.2253 103.215L27.5354 124.519ZM51.8035 142.611L34.0426 143.209L29.1188 126.118L51.8035 142.611ZM78.7827 151.603L63.3677 156.764L53.8146 143.621L78.7827 151.603ZM106.163 143.619L96.606 156.766L81.1225 151.605L106.163 143.619ZM130.859 126.118L125.937 143.209L108.176 142.611L130.859 126.118ZM147.752 103.217L147.89 119.495L132.446 124.515L147.752 103.217ZM132.087 96.5014L147.886 74.7516L147.744 101.602L132.087 96.5014ZM126.75 64.755L138.809 45.8084L147.674 73.0052L126.75 64.755ZM123.039 22.77L138.55 27.6503L138.55 43.8583L123.039 22.77ZM96.2107 13.094L111.694 8.10675L121.144 21.3926L96.2107 13.094ZM65.9557 12.7249L79.9506 1.82684L93.9818 12.7249L65.9557 12.7249ZM38.8354 21.3926L48.2877 8.10674L63.7349 13.094L38.8354 21.3926ZM21.3892 43.8603L21.3892 27.6503L36.9413 22.7699L21.3892 43.8603ZM33.2277 64.753L12.2677 73.0092L21.135 45.8084L33.2277 64.753ZM27.8904 96.5014L12.2354 101.602L12.0559 74.7516L27.8904 96.5014ZM28.1788 125.487L32.9998 142.211L12.897 120.534L28.1788 125.487ZM52.6931 143.308L62.1252 156.282L35.3114 143.893L52.6931 143.308ZM79.9506 151.98L94.5002 156.828L65.4676 156.828L79.9506 151.98ZM107.287 143.308L124.668 143.893L97.8546 156.282L107.287 143.308ZM131.799 125.487L147.044 120.534L126.98 142.209L131.799 125.487ZM148.616 74.7375L158.169 87.9185L148.473 100.993L148.616 74.7375ZM139.589 45.8588L154.363 55.8453L148.275 72.5172L139.589 45.8588ZM139.279 44.7738L139.279 28.7736L153.733 54.5466L139.279 44.7738ZM122.308 21.7777L113.419 9.28448L136.906 26.3717L122.308 21.7777ZM95.1134 12.6866L81.3827 2.02245L110.387 7.76995L95.1134 12.6866ZM64.8281 12.6866L49.5847 7.76995L78.5204 2.02245L64.8281 12.6866ZM37.6695 21.7777L23.0352 26.3717L46.563 9.2764L37.6695 21.7777ZM20.663 44.7738L6.24453 54.5446L20.663 28.7776L20.663 44.7738ZM20.3524 45.8588L11.6646 72.5151L5.6152 55.8453L20.3524 45.8588ZM11.5032 100.993L1.80886 87.9225L11.3277 74.7456L11.5032 100.993ZM11.5072 102.213L11.3438 117.535L2.38981 89.9129L11.5072 102.213ZM148.469 102.217L157.588 89.919L148.604 117.523L148.469 102.217ZM148.664 73.5699L154.619 57.2611L158.096 86.5774L148.664 73.5699ZM11.2773 73.5678L1.88552 86.5673L5.36105 57.2671L11.2773 73.5678ZM3.68479 96.2675L8.66712 111.624L5.52645 104.147L3.68479 96.2675ZM154.453 104.139L151.258 111.707L156.317 96.1707L154.453 104.139ZM157.84 71.771L158.052 80.0494L156.099 63.5692L157.84 71.771ZM1.92786 80.0494L2.13967 71.771L3.87844 63.5712L1.92786 80.0494Z" fill="white" stroke="white" stroke-width="0.310705"/>
</svg>
