<?xml version="1.0" encoding="utf-8"?>
<!-- Generator: Adobe Illustrator 25.4.1, SVG Export Plug-In . SVG Version: 6.00 Build 0)  -->
<svg version="1.1" id="mir" xmlns="http://www.w3.org/2000/svg" xmlns:xlink="http://www.w3.org/1999/xlink" x="0px" y="0px"
	 viewBox="0 0 500 500" style="enable-background:new 0 0 500 500;" xml:space="preserve">
<circle style="fill:#022845;" cx="250" cy="250" r="250"/>
<path style="fill:#01DCF9;" d="M369.9,353.1L421,291l-49.8-98.7l-9.2,61.4c-12.6-9-32.2-15.6-54.6-19.8l-57-170.3l-58,170
	c-20.2,3.6-38.2,9.3-51.1,16.8l-8.7-57.6L83,291.4l51.1,62.1l9.8-47.7c6.6,3.6,14.4,6.7,23.1,9.4l83.5,121.2l84.2-121.2l-0.3-0.9
	c9.8-3.2,18.4-7,25.2-11.4L369.9,353.1z M143.7,265.5c8.5-6.3,23.4-12.5,43.6-16.8l-18,52.8c-9.3-3-16.9-6.4-22.5-10l0.5-2.2
	L143.7,265.5z M312.5,249c24.1,5.4,40.4,13.4,47,21l-2.6,17.5c-5.5,4.8-14.6,9.6-27,13.6L312.5,249z"/>
</svg>
