<svg version="1.1" xmlns="http://www.w3.org/2000/svg" x="0px" y="0px" viewBox="0 0 24 24">
  <path
    fill="#FFF"
    d="M23.6,14.9C22,21.3,15.5,25.2,9,23.6C2.6,22-1.3,15.5,0.3,9.1S8.4-1.2,14.8,0.4C21.3,2,25.2,8.5,23.6,14.9
	L23.6,14.9L23.6,14.9z"
  />
  <path
    fill="#000"
    d="M12,15.1c-1.7,0-3.1-1.4-3.1-3.1c0-0.6,0.2-1.2,0.5-1.6L5.4,7.1v11.5h11.5l-3.3-3.9C13.1,15,12.5,15.1,12,15.1z
	"
  />
  <path
    fill="#000"
    d="M6.4,5.4l3.5,4.2c0.5-0.5,1.3-0.8,2-0.8c1.7,0,3.1,1.4,3.1,3.1c0,0.7-0.3,1.4-0.7,2l4.1,3.6V5.4H6.4z"
  />
</svg>
