<svg version="1.1" xmlns="http://www.w3.org/2000/svg" xmlns:xlink="http://www.w3.org/1999/xlink" x="0px" y="0px"
	 viewBox="0 0 120 120" style="enable-background:new 0 0 120 120;" xml:space="preserve">
<path fill="#2775CA" d="M60,120c33.2,0,60-26.8,60-60S93.2,0,60,0S0,26.8,0,60S26.8,120,60,120z"/>
<path fill="#FFFFFF" d="M76.5,69.5c0-8.8-5.3-11.8-15.7-13c-7.5-1-9-3-9-6.5c0-3.5,2.5-5.8,7.5-5.8c4.5,0,7,1.5,8.2,5.3
	c0.2,0.8,1,1.3,1.7,1.3h4c1,0,1.7-0.8,1.7-1.7v-0.2c-1-5.5-5.5-9.7-11.2-10.3v-6c0-1-0.8-1.7-2-2H58c-1,0-1.7,0.7-2,2v5.8
	c-7.5,1-12.2,6-12.2,12.2c0,8.2,5,11.5,15.5,12.7c7,1.3,9.2,2.8,9.2,6.7c0,4-3.5,6.7-8.2,6.7c-6.5,0-8.8-2.8-9.5-6.5
	c-0.2-1-1-1.5-1.7-1.5h-4.3c-1,0-1.7,0.8-1.7,1.7v0.2c1,6.2,5,10.7,13.3,12v6c0,1,0.8,1.7,2,2H62c1,0,1.7-0.8,2-2v-6
	C71.5,81.5,76.5,76.2,76.5,69.5L76.5,69.5z"/>
<path fill="#FFFFFF" d="M47.3,95.8c-19.5-7-29.5-28.7-22.3-48c3.8-10.5,12-18.5,22.3-22.3c1-0.5,1.5-1.3,1.5-2.5v-3.5
	c0-1-0.5-1.7-1.5-2c-0.2,0-0.8,0-1,0.2C22.5,25.3,9.5,50.5,17,74.3c4.5,14,15.2,24.7,29.2,29.2c1,0.5,2,0,2.3-1
	c0.2-0.2,0.2-0.5,0.2-1V98C48.7,97.2,48,96.2,47.3,95.8L47.3,95.8z M73.8,17.8c-1-0.5-2,0-2.3,1c-0.2,0.2-0.2,0.5-0.2,1v3.5
	c0,1,0.8,2,1.5,2.5c19.5,7,29.5,28.7,22.3,48C91.2,84.3,83,92.3,72.7,96c-1,0.5-1.5,1.3-1.5,2.5v3.5c0,1,0.5,1.7,1.5,2
	c0.2,0,0.8,0,1-0.2C97.5,96.3,110.5,71,103,47.3C98.5,33,87.5,22.3,73.8,17.8L73.8,17.8z"/>
<path d="M100,120c11,0,20-9,20-20s-9-20-20-20s-20,9-20,20S89,120,100,120z"/>
<path fill="#FFFFFF" d="M109.3,87c-2,0-3.5,1.6-3.5,3.6c0,0.5,0,1.1,0,1.6c-0.3-0.2-0.5-0.5-0.6-0.7
	c-2.3-3.5-6.5-5.2-10.5-4.2c-4.3,1.1-7.4,4.5-7.6,8.8c-0.2,4.5-0.1,9.1,0,13.6c0,1.9,1.8,3.4,3.7,3.3c1.9-0.1,3.4-1.6,3.5-3.5
	c0-0.6,0-1.1,0-1.7c0,0,0.1,0,0.1,0c0.2,0.3,0.3,0.5,0.5,0.8c2.3,3.6,6.8,5.2,10.9,4.1c4.1-1.1,7.1-4.9,7.2-9c0.1-4.3,0-8.7,0-13
	C113,88.6,111.3,87,109.3,87z M93.4,95.9c-0.1,0.4-0.1,0.9-0.1,1.3c0,4,0,7.9,0,11.9c0,1.6-1,2.8-2.5,2.8c-1.6,0.1-2.7-1-2.7-2.7
	c0-2.1,0-4.2,0-6.3c0,0,0,0,0.1,0c0-2.3-0.1-4.7,0-7c0.2-4,3.9-7.5,7.9-7.9c5.4-0.5,9.9,3.7,9.8,9.2c-0.1,2,0,3.9,0,5.9
	c0,1.3-1,2.4-2.3,2.6c-1.2,0.2-2.4-0.6-2.8-1.8c-0.1-0.3-0.1-0.6-0.1-1c0-2,0-4.1,0-6.1c0-1.8-1.4-3.3-3-3.5
	C95.6,93.1,93.9,94.1,93.4,95.9z M111.9,104c-0.1,4-3.5,7.4-7.5,7.9c-4.7,0.6-8.9-2.3-9.9-6.9c-0.2-1.1-0.2-2.2-0.2-3.3
	c0-1.6,0-3.1,0-4.7c0-1.6,1.1-2.8,2.6-2.8c1.5,0,2.6,1.2,2.6,2.8c0,2,0,4,0,6.1c0,1.7,1,3,2.7,3.5c1.5,0.4,3.2-0.2,4-1.6
	c0.3-0.6,0.5-1.3,0.5-1.9c0.1-2,0-4,0-6c0-2.1,0-4.2,0-6.3c0-1.1,0.5-2,1.5-2.5c1-0.4,1.9-0.3,2.7,0.3c0.7,0.5,1,1.3,1,2.1
	C112,95.1,112.1,99.5,111.9,104z"/>
</svg>
