<svg xmlns="http://www.w3.org/2000/svg" width="44" height="44" viewBox="0 0 44 44" fill="none">
<path d="M22 44C34.1503 44 44 34.1503 44 22C44 18.366 43.1189 14.9378 41.5587 11.9174C41.4586 11.7236 41.1701 11.753 41.0927 11.957C40.0861 14.6092 37.5408 16.4653 34.6998 16.6127C34.5237 16.6219 34.4046 16.8035 34.4707 16.967C35.0987 18.5216 35.4444 20.2204 35.4444 22C35.4444 29.4252 29.4252 35.4444 22 35.4444C20.3138 35.4444 18.7 35.134 17.2128 34.5672C17.048 34.5043 16.8687 34.6271 16.8631 34.8034C16.7731 37.6461 14.9635 40.2278 12.3328 41.2861C12.1304 41.3675 12.1066 41.6565 12.3024 41.7528C15.2278 43.1918 18.5195 44 22 44Z" fill="#00BF72"/>
<path d="M26.7872 9.43283C26.952 9.49567 27.1313 9.3729 27.1369 9.19655C27.2269 6.3539 29.0365 3.7722 31.6672 2.71393C31.8696 2.6325 31.8934 2.34351 31.6976 2.24721C28.7722 0.808216 25.4805 0 22 0C9.84974 0 0 9.84974 0 22C0 25.634 0.881083 29.0622 2.44128 32.0826C2.54142 32.2765 2.82989 32.247 2.90731 32.043C3.91389 29.3908 6.45919 27.5347 9.30017 27.3873C9.4763 27.3781 9.59537 27.1965 9.52931 27.033C8.90131 25.4784 8.55556 23.7796 8.55556 22C8.55556 14.5748 14.5748 8.55556 22 8.55556C23.6862 8.55556 25.3 8.86599 26.7872 9.43283Z" fill="#00BF72"/>
<path d="M31.7778 22C31.7778 27.4001 27.4001 31.7778 22 31.7778C16.5999 31.7778 12.2222 27.4001 12.2222 22C12.2222 16.5999 16.5999 12.2222 22 12.2222C27.4001 12.2222 31.7778 16.5999 31.7778 22Z" fill="#00BF72"/>
<path d="M13.9333 34.5889C13.9333 36.9514 12.0181 38.8667 9.65556 38.8667C7.293 38.8667 5.37778 36.9514 5.37778 34.5889C5.37778 32.2263 7.293 30.3111 9.65556 30.3111C12.0181 30.3111 13.9333 32.2263 13.9333 34.5889Z" fill="#00BF72"/>
<path d="M34.3444 13.6889C36.707 13.6889 38.6222 11.7737 38.6222 9.41111C38.6222 7.04856 36.707 5.13333 34.3444 5.13333C31.9819 5.13333 30.0667 7.04856 30.0667 9.41111C30.0667 11.7737 31.9819 13.6889 34.3444 13.6889Z" fill="#00BF72"/>
</svg>