<svg fill="none" viewBox="0 0 24 24" xmlns="http://www.w3.org/2000/svg">
  <path
    d="M22.8084 4.42014C22.5667 3.50503 21.7897 2.58992 20.3912 1.57122C19.2689 0.759705 18.0775 0.293518 17.1279 0.293518C16.9379 0.293518 16.7653 0.310784 16.5926 0.345317C16.1609 0.431648 15.7811 0.742439 15.5394 1.20863C15.2458 1.76114 15.1768 2.50359 15.3667 2.95251C15.4358 3.09064 15.5221 3.2633 15.6257 3.4187C14.7106 3.97122 14.1926 4.12661 14.1235 4.14388C16.5063 4.93812 18.4919 6.59568 19.735 8.75395L19.7523 8.54676C19.8041 7.97697 19.9768 7.32086 20.2185 6.64748C20.4602 6.71654 20.702 6.75107 20.9437 6.75107C21.5825 6.75107 22.135 6.49208 22.4804 6.02589C22.8257 5.55971 22.9638 4.93812 22.8084 4.42014Z"
    fill="#5E12A0"
  ></path>
  <path
    d="M20.3225 6.14679C21.8937 6.57844 22.5326 5.36981 22.3254 4.5583C22.1009 3.74679 21.3757 2.91801 20.098 1.98564C18.8203 1.05326 17.5254 0.673409 16.6966 0.846071C15.8678 1.01873 15.6261 2.27916 15.8333 2.76262C15.9196 2.95255 16.1096 3.2288 16.3685 3.5396C16.0405 3.76406 15.7297 3.93672 15.4707 4.09211C17.0592 4.80003 18.4405 5.90506 19.4765 7.28636C19.5973 6.82017 19.77 6.40578 19.9254 6.04319C20.0462 6.06046 20.1844 6.09499 20.3225 6.14679Z"
    fill="url(#paint0_radial_8766_48743)"
  ></path>
  <path
    d="M11.3266 23.0676C16.6572 23.0676 20.9784 18.7464 20.9784 13.4158C20.9784 8.08525 16.6572 3.76404 11.3266 3.76404C5.99601 3.76404 1.6748 8.08525 1.6748 13.4158C1.6748 18.7464 5.99601 23.0676 11.3266 23.0676Z"
    fill="url(#paint1_radial_8766_48743)"
  ></path>
  <path
    d="M21.5307 3.76403C20.2185 2.38274 19.1134 2.02015 17.784 1.72662C16.748 1.4849 17.0242 0.897845 18.2847 1.01871C17.6804 0.811514 17.1106 0.759716 16.6962 0.846047C15.8674 1.01871 15.6257 2.27914 15.8329 2.76259C15.9192 2.95252 16.1091 3.22878 16.3681 3.53957C15.9019 3.85036 15.5048 4.07482 15.1768 4.24749C15.3322 4.31655 15.5221 4.40288 15.7465 4.52375C16.3336 4.83454 16.9724 5.35252 16.9724 5.35252C16.0055 4.52375 16.2127 4.14389 17.5422 3.21151C17.9566 2.91799 18.7163 2.95252 19.4242 3.31511C20.1322 3.6777 20.9609 4.59281 20.9609 4.59281L20.1667 6.11223C20.2185 6.1295 20.2703 6.14677 20.3221 6.16403C20.8228 6.30216 21.2199 6.26763 21.5307 6.14677C21.8933 5.92231 22.8429 5.16259 21.5307 3.76403Z"
    fill="#A98698"
    fill-opacity="0.6"
  ></path>
  <path
    d="M17.7671 2.55539C18.1124 2.69352 18.5613 2.93525 19.1138 3.29784C19.7699 3.72949 20.3397 4.21295 20.7023 4.5928C20.098 5.38705 19.7009 6.47482 19.4592 7.23453C19.58 7.40719 19.7181 7.57985 19.839 7.75252C19.9599 7.32086 20.1671 6.68201 20.4433 6.04316C20.5124 6.06043 20.5987 6.06043 20.6851 6.06043C20.8922 6.06043 21.134 6.0259 21.3239 5.8705C21.462 5.7669 21.6174 5.57698 21.6002 5.23165C21.6002 4.90359 21.3412 4.48921 20.8059 3.98849C20.4261 3.6259 19.9081 3.22878 19.3901 2.86619C17.9052 1.88201 16.8692 1.60575 16.403 2.07194C16.0922 2.38273 16.1268 2.76259 16.2304 3.03885C15.6779 3.40144 15.2117 3.66043 14.9009 3.83309C15.1081 3.90216 15.298 3.98849 15.5052 4.07482C16.0577 3.78129 16.852 3.28057 17.7671 2.55539ZM21.0304 5.02446C21.0822 5.11079 21.0994 5.19712 21.0994 5.24892C21.0994 5.40431 21.0476 5.45611 21.0131 5.49065C20.944 5.54244 20.8059 5.57698 20.6851 5.57698C20.7886 5.36978 20.9095 5.19712 21.0304 5.02446ZM16.7656 2.4518C16.8174 2.4 16.9556 2.36547 17.18 2.4C17.0074 2.53813 16.8347 2.65899 16.662 2.77985C16.6448 2.65899 16.662 2.53813 16.7656 2.4518Z"
    fill="#5E12A0"
  ></path>
  <path
    d="M11.3266 3.19427C5.68052 3.19427 1.10498 7.76981 1.10498 13.4159C1.10498 19.0619 5.68052 23.6374 11.3266 23.6374C16.9726 23.6374 21.5481 19.0619 21.5481 13.4159C21.5481 7.76981 16.9553 3.19427 11.3266 3.19427ZM11.3266 23.0677C5.99131 23.0677 1.67476 18.7511 1.67476 13.4159C1.67476 8.08061 5.99131 3.76406 11.3266 3.76406C16.6618 3.76406 20.9784 8.08061 20.9784 13.4159C20.9784 18.7511 16.6445 23.0677 11.3266 23.0677Z"
    fill="#5E12A0"
  ></path>
  <path
    d="M11.3266 23.0676C16.6572 23.0676 20.9784 18.7464 20.9784 13.4158C20.9784 8.08525 16.6572 3.76404 11.3266 3.76404C5.99601 3.76404 1.6748 8.08525 1.6748 13.4158C1.6748 18.7464 5.99601 23.0676 11.3266 23.0676Z"
    fill="url(#paint2_linear_8766_48743)"
  ></path>
  <path
    d="M11.2577 21.8935C5.99153 21.0475 2.41743 16.0921 3.28074 10.8259C3.6606 8.49494 4.8347 6.50933 6.49225 5.07623C4.07499 6.47479 2.2793 8.90933 1.79585 11.8791C0.949806 17.1453 4.52391 22.1007 9.77283 22.9467C12.7081 23.4302 15.5397 22.5151 17.6289 20.7194C15.7815 21.7899 13.5369 22.2561 11.2577 21.8935Z"
    fill="#A98698"
    fill-opacity="0.6"
  ></path>
  <path
    d="M12.8631 3.90216C10.4285 3.50504 8.06307 4.05756 6.12926 5.28346C6.09473 5.31799 6.0602 5.35252 6.0602 5.35252C6.80264 4.9036 7.89041 4.50648 7.89041 4.50648C5.09329 6.1295 4.22998 7.97698 4.22998 7.97698C5.31775 5.87051 8.51199 4.38562 11.0156 4.28202C13.5192 4.17842 15.1595 4.92087 17.1624 6.52662C19.1652 8.14964 20.3739 11.4648 20.253 14.0892C20.1494 16.7137 18.7681 18.8374 18.7681 18.8374C19.7177 17.6115 20.2875 16.7137 20.6501 15.7986C20.7192 15.5223 20.7883 15.246 20.8228 14.9525C21.6861 9.7036 18.1293 4.74821 12.8631 3.90216Z"
    fill="url(#paint3_linear_8766_48743)"
  ></path>
  <path
    d="M20.4951 13.3295C20.4951 18.3885 16.3857 22.4978 11.3267 22.4978C6.26773 22.4978 2.14111 18.3885 2.14111 13.3295H20.4951Z"
    fill="url(#paint4_linear_8766_48743)"
  ></path>
  <path
    d="M19.7696 13.3295C19.7696 18.2676 15.8675 22.3079 10.9639 22.4978H11.3265C16.3855 22.4978 20.4948 18.3885 20.4948 13.3295H19.7696Z"
    fill="url(#paint5_linear_8766_48743)"
  ></path>
  <path
    d="M3.43608 13.3295H2.14111C2.14111 18.3885 6.25047 22.4978 11.3095 22.4978C11.5339 22.4978 11.7411 22.4978 11.9483 22.4805C7.20011 22.1352 3.43608 18.164 3.43608 13.3295Z"
    fill="url(#paint6_linear_8766_48743)"
  ></path>
  <path
    d="M20.4778 13.4158C20.4778 12.3626 18.6476 11.7583 16.2131 11.5511C14.4519 11.413 12.6735 11.5856 10.6361 12.2072C8.87493 12.7252 7.28644 12.6389 6.1296 12.5007C3.55694 12.2072 2.14111 12.1727 2.14111 13.4158C2.14111 15.2115 5.80155 17.4561 11.2922 16.6792C14.072 16.282 15.5051 15.4705 17.1454 14.918C18.9238 14.331 20.4778 14.3482 20.4778 13.4158Z"
    fill="url(#paint7_linear_8766_48743)"
  ></path>
  <path
    d="M14.3308 9.06476C15.1891 9.06476 15.8848 8.36911 15.8848 7.5108C15.8848 6.6525 15.1891 5.95685 14.3308 5.95685C13.4725 5.95685 12.7769 6.6525 12.7769 7.5108C12.7769 8.36911 13.4725 9.06476 14.3308 9.06476Z"
    fill="white"
  ></path>
  <path
    d="M16.869 10.2216C17.2314 10.2216 17.5251 9.9279 17.5251 9.56548C17.5251 9.20306 17.2314 8.90936 16.869 8.90936C16.5066 8.90936 16.2129 9.20306 16.2129 9.56548C16.2129 9.9279 16.5066 10.2216 16.869 10.2216Z"
    fill="white"
  ></path>
  <path
    d="M19.2175 6.2676H19.1829C19.0793 6.25034 19.0103 6.14674 19.0275 6.02588C19.1829 5.23163 19.8391 4.47192 19.8736 4.43739C19.9427 4.35106 20.0808 4.35106 20.1498 4.42012C20.2362 4.48919 20.2362 4.62732 20.1671 4.69638C20.1498 4.71365 19.5455 5.42156 19.4074 6.11221C19.3901 6.2158 19.3038 6.2676 19.2175 6.2676Z"
    fill="url(#paint8_linear_8766_48743)"
  ></path>
  <path
    d="M10.6876 20.6158C10.9545 20.6158 11.171 20.3993 11.171 20.1324C11.171 19.8654 10.9545 19.6489 10.6876 19.6489C10.4206 19.6489 10.2041 19.8654 10.2041 20.1324C10.2041 20.3993 10.4206 20.6158 10.6876 20.6158Z"
    fill="white"
    fill-opacity="0.2"
  ></path>
  <path
    d="M10.4117 20.4432C10.2218 20.2532 10.2218 19.9425 10.4117 19.7525C10.4462 19.718 10.4808 19.7007 10.5153 19.6662C10.4462 19.6835 10.3944 19.718 10.3426 19.7698C10.1527 19.9597 10.1527 20.2705 10.3426 20.4604C10.498 20.6158 10.7398 20.6504 10.9297 20.5468C10.757 20.6158 10.5498 20.5813 10.4117 20.4432Z"
    fill="url(#paint9_linear_8766_48743)"
  ></path>
  <path
    d="M10.8604 19.9942C10.9176 19.9942 10.964 19.9478 10.964 19.8906C10.964 19.8335 10.9176 19.787 10.8604 19.787C10.8033 19.787 10.7568 19.8335 10.7568 19.8906C10.7568 19.9478 10.8033 19.9942 10.8604 19.9942Z"
    fill="white"
    fill-opacity="0.3"
  ></path>
  <path
    d="M13.2086 20.3741C13.4755 20.3741 13.692 20.1576 13.692 19.8906C13.692 19.6237 13.4755 19.4072 13.2086 19.4072C12.9416 19.4072 12.7251 19.6237 12.7251 19.8906C12.7251 20.1576 12.9416 20.3741 13.2086 20.3741Z"
    fill="white"
    fill-opacity="0.2"
  ></path>
  <path
    d="M12.9322 20.2014C12.7423 20.0115 12.7423 19.7007 12.9322 19.5108C12.9667 19.4762 13.0013 19.459 13.0358 19.4244C12.9667 19.4417 12.9149 19.4762 12.8631 19.528C12.6732 19.718 12.6732 20.0288 12.8631 20.2187C13.0185 20.3741 13.2603 20.4086 13.4502 20.305C13.2775 20.3741 13.0703 20.3395 12.9322 20.2014Z"
    fill="url(#paint10_linear_8766_48743)"
  ></path>
  <path
    d="M13.3814 19.7525C13.4386 19.7525 13.485 19.7061 13.485 19.6489C13.485 19.5918 13.4386 19.5453 13.3814 19.5453C13.3243 19.5453 13.2778 19.5918 13.2778 19.6489C13.2778 19.7061 13.3243 19.7525 13.3814 19.7525Z"
    fill="white"
    fill-opacity="0.3"
  ></path>
  <path
    d="M11.9656 21.4964C12.1659 21.4964 12.3282 21.3341 12.3282 21.1338C12.3282 20.9335 12.1659 20.7712 11.9656 20.7712C11.7653 20.7712 11.603 20.9335 11.603 21.1338C11.603 21.3341 11.7653 21.4964 11.9656 21.4964Z"
    fill="white"
    fill-opacity="0.2"
  ></path>
  <path
    d="M11.7584 21.3583C11.6203 21.2202 11.6203 20.9784 11.7584 20.8403C11.7757 20.823 11.8102 20.8058 11.8275 20.7885C11.7757 20.8058 11.7412 20.8403 11.7066 20.8748C11.5685 21.013 11.5685 21.2547 11.7066 21.3928C11.8275 21.5137 12.0002 21.531 12.1555 21.4446C12.0174 21.4964 11.862 21.4619 11.7584 21.3583Z"
    fill="url(#paint11_linear_8766_48743)"
  ></path>
  <path
    d="M12.0862 21.0129C12.1243 21.0129 12.1552 20.982 12.1552 20.9439C12.1552 20.9057 12.1243 20.8748 12.0862 20.8748C12.048 20.8748 12.0171 20.9057 12.0171 20.9439C12.0171 20.982 12.048 21.0129 12.0862 21.0129Z"
    fill="white"
    fill-opacity="0.3"
  ></path>
  <path
    d="M14.1927 21.2374C14.393 21.2374 14.5553 21.0751 14.5553 20.8748C14.5553 20.6745 14.393 20.5122 14.1927 20.5122C13.9924 20.5122 13.8301 20.6745 13.8301 20.8748C13.8301 21.0751 13.9924 21.2374 14.1927 21.2374Z"
    fill="white"
    fill-opacity="0.2"
  ></path>
  <path
    d="M13.9855 21.0993C13.8473 20.9611 13.8473 20.7194 13.9855 20.5813C14.0027 20.564 14.0373 20.5467 14.0545 20.5295C14.0027 20.5467 13.9682 20.5813 13.9337 20.6158C13.7955 20.7539 13.7955 20.9957 13.9337 21.1338C14.0545 21.2547 14.2272 21.2719 14.3826 21.1856C14.2445 21.2374 14.0891 21.2029 13.9855 21.0993Z"
    fill="url(#paint12_linear_8766_48743)"
  ></path>
  <path
    d="M14.3137 20.754C14.3519 20.754 14.3828 20.7231 14.3828 20.6849C14.3828 20.6468 14.3519 20.6158 14.3137 20.6158C14.2755 20.6158 14.2446 20.6468 14.2446 20.6849C14.2446 20.7231 14.2755 20.754 14.3137 20.754Z"
    fill="white"
    fill-opacity="0.3"
  ></path>
  <path
    d="M8.63311 20.4432C9.07185 20.4432 9.42736 20.0877 9.42736 19.6489C9.42736 19.2104 9.07185 18.8547 8.63311 18.8547C8.19455 18.8547 7.83887 19.2104 7.83887 19.6489C7.83887 20.0877 8.19455 20.4432 8.63311 20.4432Z"
    fill="white"
    fill-opacity="0.2"
  ></path>
  <path
    d="M8.18435 20.1497C7.87356 19.8389 7.87356 19.3381 8.18435 19.0274C8.23615 18.9756 8.28794 18.941 8.35701 18.9065C8.25341 18.941 8.16708 19.0101 8.08075 19.0792C7.76996 19.3899 7.76996 19.8907 8.08075 20.2015C8.33974 20.4605 8.73687 20.5122 9.04766 20.3223C8.75413 20.4432 8.40881 20.3914 8.18435 20.1497Z"
    fill="url(#paint13_linear_8766_48743)"
  ></path>
  <path
    d="M8.90948 19.4072C9.00479 19.4072 9.08214 19.3299 9.08214 19.2346C9.08214 19.1392 9.00479 19.0619 8.90948 19.0619C8.81417 19.0619 8.73682 19.1392 8.73682 19.2346C8.73682 19.3299 8.81417 19.4072 8.90948 19.4072Z"
    fill="white"
    fill-opacity="0.3"
  ></path>
  <path
    d="M15.7293 18.4921C16.168 18.4921 16.5235 18.1366 16.5235 17.6979C16.5235 17.2593 16.168 16.9036 15.7293 16.9036C15.2907 16.9036 14.9351 17.2593 14.9351 17.6979C14.9351 18.1366 15.2907 18.4921 15.7293 18.4921Z"
    fill="white"
    fill-opacity="0.2"
  ></path>
  <path
    d="M15.2634 18.1985C14.9527 17.8878 14.9527 17.387 15.2634 17.0762C15.3152 17.0244 15.367 16.9899 15.4361 16.9554C15.3325 16.9899 15.2462 17.059 15.1599 17.128C14.8491 17.4388 14.8491 17.9396 15.1599 18.2503C15.4188 18.5093 15.816 18.5611 16.1268 18.3712C15.8332 18.4921 15.5052 18.4403 15.2634 18.1985Z"
    fill="url(#paint14_linear_8766_48743)"
  ></path>
  <path
    d="M16.0057 17.4561C16.101 17.4561 16.1783 17.3788 16.1783 17.2834C16.1783 17.1881 16.101 17.1108 16.0057 17.1108C15.9104 17.1108 15.833 17.1881 15.833 17.2834C15.833 17.3788 15.9104 17.4561 16.0057 17.4561Z"
    fill="white"
    fill-opacity="0.3"
  ></path>
  <defs>
    <radialGradient
      cx="0"
      cy="0"
      gradientTransform="translate(22.0104 3.47051) scale(7.71702 7.71702)"
      gradientUnits="userSpaceOnUse"
      id="paint0_radial_8766_48743"
      r="1"
    >
      <stop stop-color="#FFEAFF" stop-opacity="0.6"></stop>
      <stop offset="0.68" stop-color="#A087C9"></stop>
      <stop offset="1" stop-color="#10002F"></stop>
    </radialGradient>
    <radialGradient
      cx="0"
      cy="0"
      gradientTransform="translate(17.7169 6.76169) scale(18.8808)"
      gradientUnits="userSpaceOnUse"
      id="paint1_radial_8766_48743"
      r="1"
    >
      <stop stop-color="#FFEAFF" stop-opacity="0.6"></stop>
      <stop offset="0.68" stop-color="#A087C9"></stop>
      <stop offset="1" stop-color="#10002F"></stop>
    </radialGradient>
    <linearGradient
      gradientUnits="userSpaceOnUse"
      id="paint2_linear_8766_48743"
      x1="9.77838"
      x2="12.8655"
      y1="22.9307"
      y2="3.8849"
    >
      <stop stop-color="#81FFFF" stop-opacity="0.6"></stop>
      <stop offset="0.62" stop-color="white" stop-opacity="0"></stop>
      <stop offset="1" stop-color="white" stop-opacity="0"></stop>
    </linearGradient>
    <linearGradient
      gradientUnits="userSpaceOnUse"
      id="paint3_linear_8766_48743"
      x1="18.1284"
      x2="10.1473"
      y1="6.861"
      y2="14.1839"
    >
      <stop stop-color="white" stop-opacity="0.6"></stop>
      <stop offset="0.29" stop-color="white" stop-opacity="0.6"></stop>
      <stop offset="0.78" stop-color="white" stop-opacity="0"></stop>
      <stop offset="1" stop-color="white" stop-opacity="0"></stop>
    </linearGradient>
    <linearGradient
      gradientUnits="userSpaceOnUse"
      id="paint4_linear_8766_48743"
      x1="2.14889"
      x2="20.4906"
      y1="17.9083"
      y2="17.9083"
    >
      <stop stop-color="#0002E9"></stop>
      <stop offset="1" stop-color="#FF00C7"></stop>
    </linearGradient>
    <linearGradient
      gradientUnits="userSpaceOnUse"
      id="paint5_linear_8766_48743"
      x1="21.3586"
      x2="11.3753"
      y1="14.134"
      y2="23.5688"
    >
      <stop stop-color="white" stop-opacity="0.6"></stop>
      <stop offset="0.29" stop-color="white" stop-opacity="0.6"></stop>
      <stop offset="0.78" stop-color="white" stop-opacity="0"></stop>
      <stop offset="1" stop-color="white" stop-opacity="0"></stop>
    </linearGradient>
    <linearGradient
      gradientUnits="userSpaceOnUse"
      id="paint6_linear_8766_48743"
      x1="2.14889"
      x2="11.9616"
      y1="17.9083"
      y2="17.9083"
    >
      <stop stop-color="#000292" stop-opacity="0.7"></stop>
      <stop offset="1" stop-color="#7D00C7" stop-opacity="0.7"></stop>
    </linearGradient>
    <linearGradient
      gradientUnits="userSpaceOnUse"
      id="paint7_linear_8766_48743"
      x1="2.1612"
      x2="20.4784"
      y1="14.1775"
      y2="14.1775"
    >
      <stop stop-color="#000292"></stop>
      <stop offset="1" stop-color="#BE00C7"></stop>
    </linearGradient>
    <linearGradient
      gradientUnits="userSpaceOnUse"
      id="paint8_linear_8766_48743"
      x1="20.1778"
      x2="18.8614"
      y1="4.3533"
      y2="6.49258"
    >
      <stop stop-color="white" stop-opacity="0.6"></stop>
      <stop offset="0.29" stop-color="white" stop-opacity="0.6"></stop>
      <stop offset="0.78" stop-color="white" stop-opacity="0"></stop>
      <stop offset="1" stop-color="white" stop-opacity="0"></stop>
    </linearGradient>
    <linearGradient
      gradientUnits="userSpaceOnUse"
      id="paint9_linear_8766_48743"
      x1="10.1997"
      x2="10.9302"
      y1="20.1472"
      y2="20.1472"
    >
      <stop stop-color="white" stop-opacity="0.6"></stop>
      <stop offset="0.29" stop-color="white" stop-opacity="0.6"></stop>
      <stop offset="0.78" stop-color="white" stop-opacity="0"></stop>
      <stop offset="1" stop-color="white" stop-opacity="0"></stop>
    </linearGradient>
    <linearGradient
      gradientUnits="userSpaceOnUse"
      id="paint10_linear_8766_48743"
      x1="12.7185"
      x2="13.449"
      y1="19.9022"
      y2="19.9022"
    >
      <stop stop-color="white" stop-opacity="0.6"></stop>
      <stop offset="0.29" stop-color="white" stop-opacity="0.6"></stop>
      <stop offset="0.78" stop-color="white" stop-opacity="0"></stop>
      <stop offset="1" stop-color="white" stop-opacity="0"></stop>
    </linearGradient>
    <linearGradient
      gradientUnits="userSpaceOnUse"
      id="paint11_linear_8766_48743"
      x1="11.6008"
      x2="12.1492"
      y1="21.138"
      y2="21.138"
    >
      <stop stop-color="white" stop-opacity="0.6"></stop>
      <stop offset="0.29" stop-color="white" stop-opacity="0.6"></stop>
      <stop offset="0.78" stop-color="white" stop-opacity="0"></stop>
      <stop offset="1" stop-color="white" stop-opacity="0"></stop>
    </linearGradient>
    <linearGradient
      gradientUnits="userSpaceOnUse"
      id="paint12_linear_8766_48743"
      x1="13.8204"
      x2="14.3688"
      y1="20.8783"
      y2="20.8783"
    >
      <stop stop-color="white" stop-opacity="0.6"></stop>
      <stop offset="0.29" stop-color="white" stop-opacity="0.6"></stop>
      <stop offset="0.78" stop-color="white" stop-opacity="0"></stop>
      <stop offset="1" stop-color="white" stop-opacity="0"></stop>
    </linearGradient>
    <linearGradient
      gradientUnits="userSpaceOnUse"
      id="paint13_linear_8766_48743"
      x1="7.83973"
      x2="9.03272"
      y1="19.6691"
      y2="19.6691"
    >
      <stop stop-color="white" stop-opacity="0.6"></stop>
      <stop offset="0.29" stop-color="white" stop-opacity="0.6"></stop>
      <stop offset="0.78" stop-color="white" stop-opacity="0"></stop>
      <stop offset="1" stop-color="white" stop-opacity="0"></stop>
    </linearGradient>
    <linearGradient
      gradientUnits="userSpaceOnUse"
      id="paint14_linear_8766_48743"
      x1="14.9254"
      x2="16.1184"
      y1="17.7175"
      y2="17.7175"
    >
      <stop stop-color="white" stop-opacity="0.6"></stop>
      <stop offset="0.29" stop-color="white" stop-opacity="0.6"></stop>
      <stop offset="0.78" stop-color="white" stop-opacity="0"></stop>
      <stop offset="1" stop-color="white" stop-opacity="0"></stop>
    </linearGradient>
  </defs>
</svg>
