<svg version="1.1" id="Layer_1" xmlns="http://www.w3.org/2000/svg" xmlns:xlink="http://www.w3.org/1999/xlink" x="0px" y="0px"
	 viewBox="0 0 2500 2500" style="enable-background:new 0 0 2500 2500;" xml:space="preserve">
<circle style="fill:#E50571;" cx="1250" cy="1250" r="1250"/>
<circle style="fill:#FFFFFF;" cx="1250" cy="1250" r="128.6"/>
<path style="fill:#FFFFFF;" d="M1709.1,1253.5c336.5-233.9,543.2-454.9,491.6-544.9c-33.3-58.1-168.1-50.8-359.4,8.1
	c-13-22.6-36.8-37.7-64.1-37.7c-41.2,0-74.6,34.5-74.6,77.2c0,2.8,0.2,5.6,0.4,8.3c-69.8,26.5-144.5,58.1-222.5,94.3
	c-35.3-409.1-124.1-699.3-228-699.3c-103.7,0-192.4,289.3-227.8,697.4c-370.9-173.9-665.9-242-718-152.1
	c-32.5,56.3,35.9,164.2,173.9,294.7c-1.5,6.1-2.3,12.5-2.3,19.1c0,42.6,33.4,77.2,74.6,77.2c10.5,0,20.5-2.3,29.6-6.3
	c62.9,52.3,134.6,106.9,213.5,162.2c-336.6,233.9-543.3,454.9-491.6,544.9c51.7,90.1,347.6,22.7,720.2-150.2
	c7.9,91.7,18.5,177.4,31.4,255.2c-19.5,13.9-32.3,37.2-32.3,63.5c0,37.3,25.6,68.4,59.6,75.6c43.9,188.9,103.6,305.1,169.3,305.1
	c103.8,0,192.4-289.4,227.8-697.6c371,174,665.9,242.2,717.9,152.3C2250.4,1710.6,2044.5,1488.8,1709.1,1253.5z M1725.6,811.8
	c13.4,13.3,31.6,21.5,51.7,21.5c37.1,0,67.9-28,73.6-64.8c190.7-59.8,268.1-52.8,295.1-45.4c9.1,2.5,15,11.2,14,20.6
	c-5.1,56-104.2,157-104.2,157c-132.1,131.9-271.4,241.7-387.7,324.4c-54.8-37.5-112.7-75.2-173.3-112.6
	c-2-69.4-5.4-136.8-10.2-201.5C1576.7,870.1,1656.5,837.6,1725.6,811.8z M1398,1397.6c-47.4,29.1-96.7,57-146.1,83.3
	c-33.6-18.8-52-30.1-52-30.1c-46.3-25-92.5-52-137.6-79.9c-2.2-85.5-2.7-164-2.4-227.6c71-43.2,136.9-81.4,190.9-112.1
	c76.2,41.6,145,81.1,199.8,113.2c0.4,34.7-0.1,54.1-0.1,54.1c1.7,55.9,1.3,112.8-0.5,169.1C1417,1387.3,1398,1397.6,1398,1397.6z
	 M1448,1421.5c-2.5,53.4-6.2,105.5-10.4,154.9c-54.3-25.8-101-49.7-138.3-69.6c24.9-13.7,50-27.8,75.2-42.2
	C1399.3,1450.2,1423.8,1435.9,1448,1421.5z M1203.7,1506c-45.2,23.2-90.1,44.9-133,65c-3-49.4-5.2-98.4-6.8-145.8
	c21.7,13.1,43.8,26.1,66.1,39C1154.8,1478.5,1179.3,1492.4,1203.7,1506z M1009,1337.3c-43.2-27.8-85-56-124.2-83.4
	c41.7-27.4,83.5-53.9,124.1-79.1c-0.4,25.7-0.6,51.7-0.6,77.9C1008.2,1281.1,1008.5,1309.3,1009,1337.3z M1066.8,934.6
	c44.8,22.5,88.9,45.4,131.2,68c-22.3,12.4-44.8,25-67.3,37.9c-23.7,13.6-47.2,27.3-70.2,41.1c0.8-61.8,2.1-99.1,2.1-99.1
	C1063.9,966.2,1065.4,950.3,1066.8,934.6z M1304.9,1000.9c54.2-30.2,87.3-47.7,87.3-47.7c16.4-7.6,32.4-15,48-22.1
	c4.9,59.5,7.5,111.6,9,153.5c-24.3-14.6-48.9-29.2-73.9-43.7C1351.8,1027.3,1328.3,1013.9,1304.9,1000.9z M1496.2,1171.4
	c53.4,31.9,85.3,51.8,85.3,51.8c15.2,10.6,30,21.1,44.5,31.4c-49.7,34.2-93.9,62.7-129.8,85c0.5-28.7,0.8-57.8,0.8-87.1
	C1496.9,1225.3,1496.7,1198.2,1496.2,1171.4z M1238.2,214.2c6.7-6.6,17.1-7.4,24.7-2c45.9,32.5,84.4,168.5,84.4,168.5
	c48.7,180.9,74.7,357.1,88.4,499.3c-59.3,28.4-120.2,59.3-182.3,92.6c-61.6-33.4-122.2-64.5-181.2-93
	C1124.6,369.7,1208.5,243.6,1238.2,214.2z M619.2,1054c5.3-10.6,8.4-22.7,8.4-35.5c0-42.6-33.4-77.2-74.6-77.2
	c-16.7,0-32,5.7-44.5,15.2C364.1,818,351.7,750.1,351.7,750.1l-0.1-0.3c-10-23.7,11.1-29.4,11.1-29.4
	c93.5-17.6,224.7,22.6,224.7,22.6c123.5,28.1,280.4,94.2,432.9,168.6c-4.7,64.4-8.1,131.3-10.1,200.3
	c-59.6,36.5-116.7,73.2-170.8,109.8C736.8,1148.2,656.4,1084.2,619.2,1054z M736.1,1711.7c-280.1,100.9-369.7,68.8-369.7,68.8h0
	c-25.7-3.2-19.9-24.4-19.9-24.4c31.5-89.7,132-183.2,132-183.2c86.2-92.8,222-195.4,362.8-290c53.6,36.5,110.1,73.2,169,109.7
	c2,69.5,5.4,136.9,10.2,201.7C859.5,1666.9,736.1,1711.7,736.1,1711.7z M1393.7,1929c-51.8,293.2-124.2,355-124.2,355
	c-15.4,20.6-30.9,5.1-30.9,5.1c-62.1-72-93.2-205.8-93.2-205.8c-4.9-15.7-9.5-32.1-13.8-49.3c24.5-12.7,41.3-38.8,41.3-69
	c0-41.1-31-74.7-70.2-77c-12.9-83.4-22.1-174.2-28.5-265.2c57.8-27.8,117.3-58,177.7-90.4c61.7,33.4,122.3,64.5,181.2,93.1
	C1416.1,1800.5,1393.7,1929,1393.7,1929z M2147.6,1782.8c-51.1,23.4-188.1-11.5-188.1-11.5c-180.4-48.4-345.3-113.9-475.1-173.2
	c4.9-65.8,8.4-134.4,10.5-205.1c59.6-36.5,116.7-73.3,170.8-109.9c414.9,300.9,482,436.8,492.5,477.1
	C2160.7,1769.5,2156.1,1778.9,2147.6,1782.8z"/>
</svg>
