<?xml version="1.0" encoding="utf-8"?>
<!-- Generator: Adobe Illustrator 25.4.1, SVG Export Plug-In . SVG Version: 6.00 Build 0)  -->
<svg version="1.1" id="Ebene_1" xmlns="http://www.w3.org/2000/svg" xmlns:xlink="http://www.w3.org/1999/xlink" x="0px" y="0px"
	 viewBox="0 0 50 50" style="enable-background:new 0 0 50 50;" xml:space="preserve">
<g id="UST">
	<path style="fill:#4191FE;" d="M38.5,7.8c1.6,1.2,3,2.7,4.1,4.4c1.6,2.3,2.8,4.9,3.4,7.7c-0.5,0.1-1.1,0.1-1.6,0.2
		c-1.4,0.2-2.8,0.5-4.2,0.7c-3.1,0.5-6.2,1-9.3,1.5c-0.5,0.1-1.1,0.1-1.6,0.2c-1.1,0.1-2.2,0.3-3.4,0.4c-1,0.1-2.1,0.2-3.2,0.3
		c-1.3,0.1-2.7,0.2-4,0.3c-0.4,0-0.9,0.1-1.3,0.1c-0.1-0.1-0.2-0.3-0.3-0.4c-0.7-0.8-1.3-1.7-1.7-2.6c-0.6-1.4-0.5-3,0.2-4.4
		c0-0.1,0.1-0.2,0.1-0.2c0.1-0.1,0.1-0.2,0.2-0.3c0.5-0.8,1.1-1.5,1.8-2.2c1.4-1.2,2.9-2.2,4.5-3c2.5-1.2,5.1-2.2,7.7-2.8
		c1.9-0.6,3.9-0.8,5.9-0.7c0.7,0.1,1.3,0.2,2,0.4C38,7.6,38.3,7.7,38.5,7.8z"/>
	<path style="fill:#112CB6;" d="M17.4,23.6c0.4,0,0.9,0,1.3-0.1c1.3-0.1,2.7-0.2,4-0.3c1.1-0.1,2.1-0.2,3.2-0.3
		c1.1-0.1,2.2-0.3,3.4-0.4c0.5-0.1,1.1-0.1,1.6-0.2c0,0.6,0,1.3,0,1.9c0,0.6,0,1.3,0,1.9l0,1.9l0,1.9l0,1.9l0,1.9l0,1.9
		c-0.1,0-0.1,0-0.2,0c-1.8,0.2-3.6,0.5-5.4,0.7c-1.2,0.1-2.4,0.2-3.6,0.4c-0.1,0-0.2,0-0.2,0c-1.6,0.1-3.1,0.2-4.7,0.3
		c-1.3,0.1-2.6,0.1-3.9,0.1c0-0.4,0-0.8,0-1.2c0-2.6,0-5.3,0-7.9c0-0.9,0-1.9,0-2.8c-0.1-0.8,0.5-1.4,1.3-1.5c0.1,0,0.2,0,0.2,0
		C15.4,23.7,16.4,23.7,17.4,23.6z M29.4,32.4l0.4-0.3l0.4,0.2l-0.1-0.5l0.4-0.4L30,31.5L29.8,31l-0.2,0.5L29,31.7l0.4,0.2
		C29.4,32.1,29.4,32.3,29.4,32.4L29.4,32.4L29.4,32.4z M29.4,29.8l0.4-0.3l0.4,0.2l-0.1-0.5l0.4-0.4L30,28.9l-0.2-0.5l-0.2,0.5
		L29.1,29l0.4,0.3L29.4,29.8C29.4,29.8,29.4,29.8,29.4,29.8L29.4,29.8z M29.4,35.1l0.4-0.3l0.4,0.2l-0.1-0.5l0.4-0.4L30,34.2
		l-0.2-0.5l-0.2,0.5l-0.5,0.1l0.4,0.3L29.4,35.1L29.4,35.1C29.4,35.1,29.4,35.1,29.4,35.1z M27.8,28.7l0.4-0.3l0.4,0.2l0,0l0,0
		l-0.1-0.5l0.4-0.4l-0.5,0l-0.2-0.5L28,27.8l-0.5,0.1l0.4,0.3L27.8,28.7L27.8,28.7L27.8,28.7z M27,24.8L27,24.8L27,24.8l-0.1-0.5
		l0.4-0.4l-0.5,0l-0.2-0.5L26.4,24l-0.5,0.1l0.4,0.3l-0.1,0.6l0.4-0.4L27,24.8z M27,27.4C27,27.4,27,27.5,27,27.4
		C27.1,27.4,27,27.4,27,27.4L26.9,27l0.4-0.4l-0.5,0.1l-0.2-0.5l-0.2,0.5l-0.5,0.1l0.4,0.3l-0.1,0.5l0.4-0.4L27,27.4z M19.1,32.1
		L19.1,32.1L19.1,32.1L19,31.7l0.4-0.4h-0.5l-0.2-0.5l-0.2,0.5l-0.5,0l0.4,0.3l-0.1,0.5l0.4-0.3L19.1,32.1z M27.8,31.3l0.4-0.3
		l0.4,0.2l0,0l0,0l-0.1-0.5l0.4-0.4l-0.5,0l-0.2-0.5L28,30.5l-0.5,0.1l0.4,0.3L27.8,31.3L27.8,31.3L27.8,31.3z M27.8,34l0.4-0.3
		l0.4,0.2l-0.1-0.5l0.4-0.4l-0.6,0.1l-0.2-0.5L28,33.1l-0.5,0.1l0.4,0.3L27.8,34L27.8,34L27.8,34z M24.6,34.3l0.4-0.3l0.4,0.3
		l-0.2-0.5l0.4-0.4l-0.5,0L25,33l-0.2,0.5l-0.5,0.1l0.4,0.3L24.6,34.3L24.6,34.3L24.6,34.3z M17.3,35.4l-0.2-0.5l-0.2,0.5l-0.5,0
		l0.4,0.3l-0.2,0.5l0.4-0.3l0.4,0.3l-0.2-0.5l0.4-0.3L17.3,35.4z M16.7,33.6l0.4-0.3l0.4,0.3l-0.2-0.5l0.4-0.3h-0.5l-0.2-0.5
		l-0.2,0.5l-0.5,0l0.4,0.3L16.7,33.6z M15.3,29.2l-0.2,0.5l0.4-0.3l0.4,0.3l-0.1-0.5l0.4-0.3h-0.5l-0.2-0.5l-0.2,0.5h-0.5L15.3,29.2
		z M23.8,24.7l0.4-0.4l-0.5,0l-0.2-0.5l-0.2,0.5l-0.5,0.1l0.4,0.3L23,25.3l0.4-0.3l0.5,0.3L23.8,24.7z M20.3,30.5l0.4,0.3l-0.2-0.5
		l0.4-0.4h-0.5l-0.2-0.5l-0.2,0.5L19.6,30l0.4,0.3l-0.1,0.5L20.3,30.5z M15.6,32l0.4,0.3l-0.1-0.5l0.4-0.3h-0.5l-0.2-0.5l-0.2,0.5
		l-0.5,0l0.4,0.3l-0.2,0.5L15.6,32z M18.9,28.7l-0.2-0.5l-0.2,0.5L18,28.7l0.4,0.3l-0.2,0.5l0.5-0.4l0.4,0.3L19,29l0.4-0.4H18.9z
		 M15.1,35l0.4-0.3L16,35l-0.1-0.5l0.4-0.3h-0.5l-0.2-0.5l-0.2,0.5l-0.5,0l0.4,0.3L15.1,35z M19.2,26.9L19,26.4l0.4-0.4h-0.5
		l-0.2-0.5L18.5,26l-0.5,0l0.4,0.3l-0.1,0.5l0.5-0.3L19.2,26.9z M20.3,32.1l-0.2,0.5l-0.5,0.1l0.4,0.3l-0.1,0.5l0.4-0.3l0.4,0.3
		l-0.2-0.5l0.4-0.4h-0.5L20.3,32.1z M15.1,27l0.4-0.3L16,27l-0.1-0.5l0.4-0.4h-0.5l-0.2-0.5l-0.2,0.5l-0.5,0l0.4,0.3L15.1,27z
		 M21,24.6l-0.6,0l-0.2-0.5l-0.2,0.5l-0.5,0.1L20,25l-0.2,0.5l0.4-0.3l0.5,0.3l-0.2-0.5L21,24.6z M21.2,33.8l0.4,0.3l-0.1,0.5
		l0.4-0.3l0.5,0.3l-0.2-0.5l0.4-0.4l-0.6,0l-0.2-0.5l-0.2,0.5L21.2,33.8z M14.7,35.5h-0.5L14,35l-0.2,0.5h-0.5l0.4,0.3l-0.2,0.5
		l0.4-0.3l0.5,0.3l-0.1-0.5L14.7,35.5z M28.5,25.4l0.4-0.4l-0.5,0l-0.2-0.5L28,25.2l-0.5,0.1l0.4,0.3l-0.2,0.6l0.5-0.4l0.5,0.3
		L28.5,25.4z M23.3,32.3l-0.5,0.1l0.4,0.3L23,33.2l0.4-0.3l0.4,0.3l-0.2-0.5l0.4-0.4l-0.5,0.1l-0.2-0.5L23.3,32.3z M21,27.2h-0.5
		l-0.2-0.5l-0.2,0.5l-0.5,0.1l0.4,0.3l-0.1,0.5l0.4-0.3l0.4,0.3l-0.2-0.5L21,27.2z M23.9,35.8l-0.2-0.5l0.4-0.4l-0.6,0l-0.2-0.5
		L23.3,35L22.7,35l0.4,0.3L23,35.9l0.4-0.3L23.9,35.8z M25.5,31.6l-0.2-0.5l0.4-0.4l-0.6,0l-0.2-0.5l-0.2,0.5l-0.5,0.1l0.4,0.3
		l-0.1,0.5l0.4-0.4L25.5,31.6z M23.2,27.4L23,27.9l0.4-0.3l0.4,0.3l-0.2-0.5l0.4-0.4l-0.5,0l-0.2-0.5L23.3,27l-0.5,0.1L23.2,27.4z
		 M26.2,35.5l0.5-0.4l0.4,0.3l-0.1-0.5l0.4-0.4l-0.6,0.1l-0.2-0.5l-0.2,0.6l-0.5,0.1l0.4,0.3L26.2,35.5z M21.4,26.7l0.4-0.3l0.4,0.3
		l-0.2-0.5l0.4-0.4l-0.6,0l-0.2-0.5l-0.2,0.5l-0.5,0.1l0.4,0.3L21.4,26.7z M25.2,25.5L25,25l-0.2,0.5l-0.5,0.1l0.4,0.3l-0.1,0.5
		l0.4-0.4l0.4,0.3l-0.2-0.5l0.4-0.4L25.2,25.5z M26.2,30.2L26.2,30.2l0.4-0.3l0.4,0.2l-0.1-0.5l0.4-0.4l-0.5,0l-0.2-0.5l-0.2,0.5
		l-0.5,0.1l0.4,0.3L26.2,30.2z M18.9,34l-0.2-0.5L18.5,34L18,34l0.4,0.3l-0.1,0.5l0.4-0.3l0.4,0.3L19,34.3l0.4-0.3L18.9,34z
		 M23.6,29.6l-0.2-0.5l-0.2,0.5l-0.5,0.1l0.4,0.3L23,30.6l0.4-0.3l0.4,0.3L23.8,30l0.4-0.4L23.6,29.6z M24.3,28.3l0.4,0.3l-0.1,0.5
		l0.4-0.4l0.5,0.3l-0.2-0.5l0.4-0.4l-0.6,0.1L25,27.6l-0.2,0.5L24.3,28.3z M17.1,29.5L17,30.1l-0.5,0l0.4,0.3L16.7,31l0.4-0.3
		l0.4,0.3l-0.1-0.5l0.4-0.3h-0.5L17.1,29.5z M21.7,28.5l-0.5,0.1l0.4,0.3l-0.1,0.5l0.4-0.3l0.4,0.3l-0.2-0.5l0.5-0.4l-0.6,0
		l-0.2-0.5L21.7,28.5z M20.3,34.7l-0.2,0.5l-0.5,0l0.4,0.3l-0.1,0.5l0.4-0.3l0.4,0.3l-0.2-0.5l0.4-0.4h-0.5L20.3,34.7z M13.9,25.4
		l0.5,0.3l-0.1-0.5l0.4-0.3h-0.5L14,24.4l-0.2,0.5l-0.5,0l0.4,0.3l-0.2,0.5L13.9,25.4z M16.4,24.8l0.4,0.3l-0.2,0.5l0.4-0.3l0.4,0.3
		l-0.1-0.5l0.4-0.3h-0.5l-0.2-0.5L17,24.8L16.4,24.8z M27.4,31.9l-0.6,0l-0.2-0.5L26.4,32l-0.5,0.1l0.4,0.3l-0.1,0.5l0.4-0.4
		l0.4,0.2l-0.1-0.5L27.4,31.9z M13.5,28.4l0.4-0.3l0.5,0.3l-0.1-0.5l0.4-0.3h-0.5L14,27l-0.2,0.5h-0.5l0.4,0.3L13.5,28.4z
		 M16.7,28.3l0.4-0.3l0.4,0.3l-0.2-0.5l0.4-0.3h-0.5l-0.2-0.5L17,27.4l-0.5,0l0.4,0.3L16.7,28.3z M21.6,31.5L21.4,32l0.4-0.3
		l0.4,0.3l-0.2-0.5l0.4-0.4l-0.6,0.1l-0.2-0.5l-0.2,0.5l-0.5,0L21.6,31.5z M14,33.4l0.4,0.3l-0.1-0.5l0.4-0.3h-0.5L14,32.3l-0.2,0.5
		h-0.5l0.4,0.3l-0.2,0.5L14,33.4z M14.7,30.2h-0.5L14,29.7l-0.2,0.5l-0.5,0l0.4,0.3L13.5,31l0.4-0.3l0.4,0.3l-0.1-0.5L14.7,30.2z
		 M29.4,24.5L29.4,24.5l0.4-0.3l0.4,0.2l-0.1-0.5l0.4-0.4L30,23.6l-0.2-0.5l-0.2,0.5l-0.6,0.1l0.4,0.3L29.4,24.5z M30.5,26.2
		L30,26.2l-0.2-0.5l-0.2,0.5l-0.5,0.1l0.4,0.3l-0.1,0.5l0,0l0.4-0.3l0.4,0.2l-0.1-0.5L30.5,26.2z"/>
	<path style="fill:#4191FE;" d="M12.9,28c0,2.6,0,5.3,0,7.9c0,0.4,0,0.8,0,1.2l0,1.9l0,1.9c0,0.3,0,0.6,0,0.8c0,0.2,0,0.5,0,0.7
		C4.6,36.8,1.2,26.3,4.7,17c0.2,0.3,0.5,0.6,0.7,0.9c1.2,1.4,2.4,2.9,3.6,4.3c1.3,1.8,2.6,3.6,3.7,5.5C12.7,27.8,12.8,27.9,12.9,28z
		"/>
	<path style="fill:#0039AC;" d="M38.5,7.8c-0.2-0.1-0.4-0.2-0.7-0.2c-0.7-0.2-1.3-0.3-2-0.4c-2-0.1-4,0.1-5.9,0.7
		c-2.7,0.6-5.3,1.6-7.7,2.8c-1.6,0.8-3.2,1.8-4.5,3c-0.7,0.6-1.3,1.4-1.8,2.2c-0.1,0.1-0.1,0.2-0.2,0.3c-0.5-0.4-1.1-0.9-1.6-1.3
		c-0.5-0.5-1-1.1-1.3-1.7c0.8-0.4,1.5-0.8,2.3-1.2c1.3-0.7,2.5-1.7,3.5-2.8c0.4-0.5,0.7-1.1,0.9-1.8c0.2-0.8-0.3-1.5-1-1.8
		c-0.2-0.1-0.4-0.1-0.6-0.2c0.7-0.3,1.4-0.6,2.1-0.8C20.7,4,21.9,3.7,23,3.6c0.8-0.1,1.6-0.1,2.5-0.2c0.4,0,0.9,0,1.4,0
		c1,0.1,1.9,0.2,2.8,0.3c1.6,0.3,3.2,0.8,4.7,1.5c1.2,0.5,2.3,1.2,3.3,1.9C38,7.3,38.2,7.5,38.5,7.8z"/>
	<path style="fill:#4191FE;" d="M17.6,5.1c0.2,0.1,0.4,0.1,0.6,0.2c0.8,0.2,1.2,1,1,1.8c-0.1,0.7-0.4,1.3-0.9,1.8
		c-1,1.2-2.1,2.1-3.5,2.8c-0.7,0.4-1.5,0.8-2.3,1.2c-1.6,0.8-3.3,1.3-5,1.8C7,14.8,6.4,14.9,5.7,15c-0.1,0-0.1,0-0.2,0
		c0.1-0.1,0.1-0.3,0.2-0.4C7.6,11,10.4,8,13.8,5.9c1.1-0.6,2.3-0.9,3.6-0.8C17.5,5.1,17.6,5.1,17.6,5.1z"/>
	<path style="fill:#810000;" d="M17.8,48.7c-1.2,0-2.3,0-3.5,0c-0.5,0-1-0.3-1.2-0.7c0.1,0,0.1,0.1,0.2,0.1c0.3,0.3,0.7,0.4,1,0.4
		c0.7,0,1.4,0,2-0.1c0.6,0,1.3,0,1.9-0.1c0.1,0,0.3,0,0.4,0c0.1,0,0.3,0,0.4,0.1c0.7,0,1.3-0.1,2-0.1c0.8-0.1,1.5-0.1,2.3-0.2
		c0.8-0.1,1.6-0.2,2.4-0.2c0.8-0.1,1.5-0.2,2.3-0.3c0.9-0.1,1.7-0.2,2.6-0.3c0.9-0.1,1.8-0.3,2.7-0.4c0.8-0.1,1.6-0.2,2.4-0.4
		c1.1-0.2,2.2-0.4,3.3-0.5c0.8-0.1,1.7-0.3,2.5-0.4c0.9-0.1,1.9-0.3,2.8-0.4c0.8-0.1,1.6-0.2,2.3-0.3c0.4,0,0.7-0.1,1.1-0.1
		c0.5,0,1,0.1,1.5,0.1c0.4,0.1,0.5,0.5,0.2,0.8c-0.1,0.1-0.2,0.2-0.3,0.3c-0.3,0.2-0.7,0.4-1,0.5c-1,0.4-2.1,0.6-3.1,0.7
		c-1.1,0.2-2.3,0.4-3.4,0.7c-1.4,0.1-2.9,0.3-4.3,0.4c-2.2,0.1-4.3,0.2-6.5,0.3c-1.4,0.1-2.9,0.1-4.3,0.1c-2.3,0-4.7,0-7,0.1
		C18.9,48.7,18.4,48.7,17.8,48.7z"/>
	<path style="fill:#F00222;" d="M44.4,20c-1.4,0.2-2.8,0.5-4.2,0.7c-3.1,0.5-6.2,1-9.3,1.5c0,0.6,0,1.3,0,1.9
		c3.6-0.6,7.2-1.2,10.8-1.8c1.2-0.2,2.4-0.4,3.6-0.6l0.8-0.1c0-0.6,0-1.3,0-1.9l-0.1,0C45.5,19.9,44.9,19.9,44.4,20z"/>
	<path style="fill:#F00222;" d="M49.9,20.5c0-0.3-0.2-0.5-0.4-0.6c-0.3-0.1-0.6-0.2-0.9-0.2c-0.8,0-1.7,0.1-2.5,0.1l0,1.9
		c0.1,0,0.3,0,0.4,0c1-0.1,2-0.1,3,0.1l0.5,0.4C49.9,21.6,49.9,21.1,49.9,20.5z"/>
	<path style="fill:#F00222;" d="M49.8,29.6l-0.3-0.3c0-0.1,0-0.2,0.1-0.3c0-0.4,0-0.8,0-1.3c0-0.1,0-0.2,0-0.3l0.2,0.1
		c0.1,0.1,0.1,0.2,0.2,0.3c0,0.6,0,1.1,0,1.7L49.8,29.6z"/>
	<path style="fill:#F00222;" d="M49.5,42.8l0.3,0.2c0.1,0.1,0.1,0.3,0.2,0.4c0,0.6,0,1.1,0,1.7l-0.4-0.5L49.5,42.8z"/>
	<path style="fill:#F00222;" d="M49.9,26l-0.4-0.4l0-1.9l0.3,0.2c0.1,0.2,0.1,0.4,0.2,0.6C49.9,25,49.9,25.5,49.9,26z"/>
	<path style="fill:#F00222;" d="M49.9,41.2l-0.5-0.4c0-0.2,0.1-0.3,0.1-0.5c0-0.4,0-0.9,0-1.3l0.2,0.1c0.1,0.2,0.1,0.4,0.2,0.7
		C50,40.2,49.9,40.7,49.9,41.2z"/>
	<path style="fill:#F00222;" d="M49.6,35.2l0.2,0.1c0.1,0.2,0.1,0.3,0.2,0.5c0,0.5,0,1,0,1.6L49.5,37c0-0.5,0-1,0-1.5
		C49.5,35.4,49.6,35.3,49.6,35.2z"/>
	<path style="fill:#F00222;" d="M49.6,31.4l0.2,0.1c0.1,0.2,0.1,0.4,0.2,0.6c0,0.5,0,1,0,1.5l-0.4-0.4c0-0.1,0-0.2,0-0.2
		c0-0.4,0-0.7,0-1.1C49.6,31.7,49.6,31.6,49.6,31.4z"/>
	<path style="fill:#810000;" d="M13,47.8L13,47.8L13,47.8z"/>
	<path style="fill:#810000;" d="M13.1,47.9L13.1,47.9L13.1,47.9z"/>
	<path style="fill:#FEFEFE;" d="M49.5,29.4c-0.8-0.2-1.7-0.2-2.6-0.1c-0.4,0-0.8,0.1-1.2,0.1l-0.1,0l0,1.9l0.5,0c1-0.2,2-0.2,3,0
		c0.2,0,0.3,0.1,0.4,0.2l0.2,0.1l0-1.9L49.5,29.4z"/>
	<path style="fill:#FEFEFE;" d="M39,30.5c-2.4,0.4-4.9,0.8-7.3,1.2c-0.3,0-0.5,0.1-0.8,0.1c0,0.6,0,1.3,0,1.9
		c1.4-0.2,2.7-0.4,4.1-0.6c3.6-0.6,7.1-1.2,10.7-1.8l0-1.9C43.4,29.8,41.2,30.1,39,30.5z"/>
	<path style="fill:#FEFEFE;" d="M49.5,25.6c-0.7-0.2-1.5-0.3-2.2-0.2c-0.5,0-1.1,0.1-1.6,0.1l-0.3,0.1l0,0.6l0-0.6
		c-1.4,0.2-2.8,0.4-4.2,0.7c-3,0.5-6.1,1-9.1,1.5c-0.4,0.1-0.9,0.1-1.3,0.2c0,0.6,0,1.3,0,1.9c1.9-0.3,3.8-0.6,5.6-0.9
		c2.2-0.4,4.5-0.8,6.7-1.1c0.7-0.1,1.5-0.2,2.2-0.3l0,0l0.2,0c1-0.2,2-0.2,2.9-0.2c0.3,0.1,0.6,0.1,0.9,0.3l0.2,0.1v-1.6l0,0
		l0.1-0.2L49.5,25.6z"/>
	<path style="fill:#FEFEFE;" d="M49.4,21.8c-1-0.2-2-0.2-3-0.1c-0.1,0-0.3,0-0.4,0l-0.8,0.1c-1.2,0.2-2.4,0.4-3.6,0.6
		c-3.6,0.6-7.2,1.2-10.8,1.8c0,0.6,0,1.3,0,1.9c2.2-0.4,4.4-0.7,6.6-1.1c2.6-0.4,5.3-0.9,7.9-1.3l0,0l0.4,0c1-0.2,2-0.2,3.1-0.2
		c0.3,0.1,0.5,0.1,0.8,0.2l0.3,0.2c0,0.2,0.1,0.3,0.2,0.5c0-0.7,0.1-1.5,0-2.3L49.4,21.8z"/>
	<path style="fill:#FEFEFE;" d="M49.9,33.6l-0.4-0.4c-0.8-0.2-1.6-0.3-2.4-0.2c-0.3,0-0.6,0-1,0.1l-0.7,0.1
		c-1.7,0.3-3.4,0.5-5.2,0.8c-2.1,0.3-4.2,0.7-6.2,1.1c-1.1,0.2-2.1,0.3-3.2,0.5c-0.1,0-0.1,0-0.2,0c-1.8,0.2-3.6,0.5-5.4,0.7
		c-1.2,0.1-2.4,0.2-3.6,0.4c-0.1,0-0.2,0-0.2,0c-1.6,0.1-3.1,0.2-4.7,0.3c-1.3,0.1-2.6,0.1-3.9,0.1l0,1.9c2.6-0.1,5.2-0.2,7.7-0.3
		c0.4,0,0.7-0.1,1.1-0.1l0,0l0.8,0c0.6-0.1,1.3-0.1,1.9-0.2c2-0.2,4.1-0.4,6.1-0.8c3.4-0.5,6.8-1.1,10.1-1.7
		c1.6-0.3,3.2-0.5,4.8-0.8l0,0l0.6-0.1c0.9-0.1,1.8-0.2,2.7-0.1c0.3,0.1,0.6,0.2,0.9,0.3c0.1,0,0.1,0.1,0.2,0.1v-1.6l0.2,0
		L49.9,33.6z"/>
	<path style="fill:#E8E7E7;" d="M17.3,35.4h0.5l-0.4,0.3l0.2,0.5L17.1,36l-0.4,0.3l0.2-0.5l-0.4-0.3l0.5,0l0.2-0.5L17.3,35.4z"/>
	<path style="fill:#E8E7E7;" d="M16.7,33.6l0.2-0.5l-0.4-0.3l0.5,0l0.2-0.5l0.2,0.5h0.5l-0.4,0.3l0.2,0.5l-0.4-0.3L16.7,33.6z"/>
	<path style="fill:#E8E7E7;" d="M15.3,29.2l-0.4-0.3h0.5l0.2-0.5l0.2,0.5h0.5l-0.4,0.3l0.1,0.5l-0.4-0.3l-0.4,0.3L15.3,29.2z"/>
	<path style="fill:#E8E7E7;" d="M23.8,24.7l0.2,0.5l-0.5-0.3L23,25.3l0.1-0.5l-0.4-0.3l0.5-0.1l0.2-0.5l0.2,0.5l0.5,0L23.8,24.7z"/>
	<path style="fill:#E8E7E7;" d="M20.3,30.5l-0.4,0.3l0.1-0.5L19.6,30l0.5-0.1l0.2-0.5l0.2,0.5H21l-0.4,0.4l0.2,0.5L20.3,30.5z"/>
	<path style="fill:#E8E7E7;" d="M15.6,32l-0.5,0.3l0.2-0.5l-0.4-0.3l0.5,0l0.2-0.5l0.2,0.5h0.5l-0.4,0.3l0.1,0.5L15.6,32z"/>
	<path style="fill:#E8E7E7;" d="M18.9,28.7h0.5L19,29l0.2,0.6l-0.4-0.3l-0.5,0.4l0.2-0.5L18,28.7l0.5-0.1l0.2-0.5L18.9,28.7z"/>
	<path style="fill:#E8E7E7;" d="M15.1,35l0.2-0.5l-0.4-0.3l0.5,0l0.2-0.5l0.2,0.5h0.5l-0.4,0.3L16,35l-0.4-0.3L15.1,35z"/>
	<path style="fill:#E8E7E7;" d="M19.2,26.9l-0.4-0.3l-0.5,0.3l0.1-0.5L18,26.1l0.5,0l0.2-0.5l0.2,0.5h0.5L19,26.4L19.2,26.9z"/>
	<path style="fill:#E8E7E7;" d="M20.3,32.1l0.2,0.5H21l-0.4,0.4l0.2,0.5l-0.4-0.3l-0.4,0.3l0.1-0.5l-0.4-0.3l0.5-0.1L20.3,32.1z"/>
	<path style="fill:#E8E7E7;" d="M15.1,27l0.2-0.5l-0.4-0.3l0.5,0l0.2-0.5l0.2,0.5h0.5l-0.4,0.4L16,27l-0.4-0.3L15.1,27z"/>
	<path style="fill:#E8E7E7;" d="M21,24.6l-0.4,0.4l0.2,0.5l-0.5-0.3l-0.4,0.3L20,25l-0.4-0.3l0.5-0.1l0.2-0.5l0.2,0.5L21,24.6z"/>
	<path style="fill:#E8E7E7;" d="M21.2,33.8l0.5,0l0.2-0.5l0.2,0.5l0.6,0l-0.4,0.4l0.2,0.5l-0.5-0.3l-0.4,0.3l0.1-0.5L21.2,33.8z"/>
	<path style="fill:#E8E7E7;" d="M24.6,34.3l0.1-0.5l-0.4-0.3l0.5-0.1L25,33l0.2,0.5l0.5,0l-0.4,0.4l0.2,0.5L25.1,34L24.6,34.3
		L24.6,34.3z"/>
	<path style="fill:#E8E7E7;" d="M14.7,35.5l-0.4,0.3l0.1,0.5l-0.5-0.3l-0.4,0.3l0.2-0.5l-0.4-0.3h0.5L14,35l0.2,0.5L14.7,35.5z"/>
	<path style="fill:#E8E7E7;" d="M28.5,25.4l0.2,0.5l-0.5-0.3l-0.5,0.4l0.2-0.6l-0.4-0.3l0.5-0.1l0.2-0.5l0.2,0.5l0.5,0L28.5,25.4z"
		/>
	<path style="fill:#E8E7E7;" d="M23.3,32.3l0.2-0.5l0.2,0.5l0.5-0.1l-0.4,0.4l0.2,0.5l-0.4-0.3L23,33.2l0.1-0.5l-0.4-0.3L23.3,32.3z
		"/>
	<path style="fill:#E8E7E7;" d="M21,27.2l-0.4,0.4l0.2,0.5l-0.4-0.3l-0.4,0.3l0.1-0.5l-0.4-0.3l0.5-0.1l0.2-0.5l0.2,0.5H21z"/>
	<path style="fill:#E8E7E7;" d="M23.9,35.8l-0.4-0.3L23,35.9l0.1-0.5L22.7,35l0.5-0.1l0.2-0.5l0.2,0.5l0.6,0l-0.4,0.4L23.9,35.8z"/>
	<path style="fill:#E8E7E7;" d="M25.5,31.6l-0.4-0.3l-0.4,0.4l0.1-0.5l-0.4-0.3l0.5-0.1l0.2-0.5l0.2,0.5l0.6,0l-0.4,0.4L25.5,31.6z"
		/>
	<path style="fill:#E8E7E7;" d="M23.2,27.4l-0.4-0.3l0.5-0.1l0.2-0.5l0.2,0.5l0.5,0l-0.4,0.4l0.2,0.5l-0.4-0.3L23,27.9L23.2,27.4z"
		/>
	<path style="fill:#E8E7E7;" d="M26.2,35.5l0.1-0.5l-0.4-0.3l0.5-0.1l0.2-0.6l0.2,0.5l0.6-0.1l-0.4,0.4l0.1,0.5l-0.4-0.3L26.2,35.5z
		"/>
	<path style="fill:#E8E7E7;" d="M21.4,26.7l0.2-0.5l-0.4-0.3l0.5-0.1l0.2-0.5l0.2,0.5l0.6,0l-0.4,0.4l0.2,0.5l-0.4-0.3L21.4,26.7z"
		/>
	<path style="fill:#E8E7E7;" d="M25.2,25.5l0.6-0.1l-0.4,0.4l0.2,0.5l-0.4-0.3l-0.4,0.4l0.1-0.5l-0.4-0.3l0.5-0.1L25,25L25.2,25.5z"
		/>
	<path style="fill:#E8E7E7;" d="M27.8,34l0.1-0.5l-0.4-0.3l0.5-0.1l0.2-0.6l0.2,0.5l0.6-0.1l-0.4,0.4l0.1,0.5l-0.4-0.2L27.8,34
		L27.8,34z"/>
	<path style="fill:#E8E7E7;" d="M26.2,30.2l0.1-0.5l-0.4-0.3l0.5-0.1l0.2-0.5l0.2,0.5l0.5,0l-0.4,0.4l0.1,0.5l-0.4-0.2L26.2,30.2
		L26.2,30.2z"/>
	<path style="fill:#E8E7E7;" d="M18.9,34h0.5L19,34.3l0.1,0.5l-0.4-0.3l-0.4,0.3l0.1-0.5L18,34l0.5,0l0.2-0.5L18.9,34z"/>
	<path style="fill:#E8E7E7;" d="M23.6,29.6l0.6,0L23.8,30l0.2,0.5l-0.4-0.3L23,30.6l0.1-0.5l-0.4-0.3l0.5-0.1l0.2-0.5L23.6,29.6z"/>
	<path style="fill:#E8E7E7;" d="M24.3,28.3l0.5-0.1l0.2-0.5l0.2,0.5l0.6-0.1l-0.4,0.4l0.2,0.5l-0.5-0.3l-0.4,0.4l0.1-0.5L24.3,28.3z
		"/>
	<path style="fill:#E8E7E7;" d="M17.1,29.5l0.2,0.5h0.5l-0.4,0.3l0.1,0.5l-0.4-0.3L16.7,31l0.1-0.5l-0.4-0.3l0.5,0L17.1,29.5z"/>
	<path style="fill:#E8E7E7;" d="M21.7,28.5l0.2-0.5l0.2,0.5l0.6,0l-0.5,0.4l0.2,0.5L21.9,29l-0.4,0.3l0.1-0.5l-0.4-0.3L21.7,28.5z"
		/>
	<path style="fill:#E8E7E7;" d="M20.3,34.7l0.2,0.5H21l-0.4,0.4l0.2,0.5l-0.4-0.3l-0.4,0.3l0.1-0.5l-0.4-0.3l0.5,0L20.3,34.7z"/>
	<path style="fill:#E8E7E7;" d="M13.9,25.4l-0.4,0.3l0.2-0.5l-0.4-0.3l0.5,0l0.2-0.5l0.2,0.5h0.5l-0.4,0.3l0.1,0.5L13.9,25.4z"/>
	<path style="fill:#E8E7E7;" d="M16.4,24.8l0.5,0l0.2-0.5l0.2,0.5h0.5l-0.4,0.3l0.1,0.5l-0.4-0.3l-0.4,0.3l0.2-0.5L16.4,24.8z"/>
	<path style="fill:#E8E7E7;" d="M27.4,31.9l-0.4,0.4l0.1,0.5l-0.4-0.2l-0.4,0.4l0.1-0.5l-0.4-0.3l0.5-0.1l0.2-0.5l0.2,0.5L27.4,31.9
		z"/>
	<path style="fill:#E8E7E7;" d="M13.5,28.4l0.2-0.5l-0.4-0.3h0.5L14,27l0.2,0.5h0.5l-0.4,0.3l0.1,0.5l-0.5-0.3L13.5,28.4z"/>
	<path style="fill:#E8E7E7;" d="M28.6,31.2L28.2,31l-0.4,0.3l0,0l0.1-0.5l-0.4-0.3l0.5-0.1l0.2-0.5l0.2,0.5l0.5,0l-0.4,0.4
		L28.6,31.2L28.6,31.2z"/>
	<path style="fill:#E8E7E7;" d="M19.1,32.1l-0.4-0.2l-0.4,0.3l0.1-0.5L18,31.4l0.5,0l0.2-0.5l0.2,0.5h0.5L19,31.7L19.1,32.1
		C19.1,32.1,19.1,32.1,19.1,32.1z"/>
	<path style="fill:#E8E7E7;" d="M16.7,28.3l0.2-0.5l-0.4-0.3l0.5,0l0.2-0.5l0.2,0.5h0.5l-0.4,0.3l0.2,0.5L17.1,28L16.7,28.3z"/>
	<path style="fill:#E8E7E7;" d="M27,27.4l-0.4-0.2l-0.4,0.4l0.1-0.5l-0.4-0.3l0.5-0.1l0.2-0.5l0.2,0.5l0.5-0.1L26.9,27L27,27.4
		L27,27.4z"/>
	<path style="fill:#E8E7E7;" d="M21.6,31.5l-0.4-0.3l0.5,0l0.2-0.5l0.2,0.5l0.6-0.1l-0.4,0.4l0.2,0.5l-0.4-0.3L21.4,32L21.6,31.5z"
		/>
	<path style="fill:#E8E7E7;" d="M27,24.8l-0.4-0.2l-0.4,0.4l0.1-0.6l-0.4-0.3l0.5-0.1l0.2-0.5l0.2,0.5l0.5,0l-0.4,0.4L27,24.8
		L27,24.8z"/>
	<path style="fill:#E8E7E7;" d="M28.6,28.6l-0.4-0.2l-0.4,0.3l0,0l0.1-0.5l-0.4-0.3l0.5-0.1l0.2-0.5l0.2,0.5l0.5,0l-0.4,0.4
		L28.6,28.6L28.6,28.6z"/>
	<path style="fill:#E8E7E7;" d="M14,33.4l-0.4,0.3l0.2-0.5l-0.4-0.3h0.5l0.2-0.5l0.2,0.5h0.5l-0.4,0.3l0.1,0.5L14,33.4z"/>
	<path style="fill:#E8E7E7;" d="M14.7,30.2l-0.4,0.3l0.1,0.5L14,30.7L13.5,31l0.2-0.5l-0.4-0.3l0.5,0l0.2-0.5l0.2,0.5L14.7,30.2z"/>
	<path style="fill:#E8E7E7;" d="M29.4,35.1l0.1-0.5l-0.4-0.3l0.5-0.1l0.2-0.5l0.2,0.5l0.5-0.1l-0.4,0.4l0.1,0.5l-0.4-0.2L29.4,35.1
		L29.4,35.1z"/>
	<path style="fill:#E8E7E7;" d="M29.4,24.5l0.1-0.5l-0.4-0.3l0.6-0.1l0.2-0.5l0.2,0.5l0.5-0.1l-0.4,0.4l0.1,0.5l-0.4-0.2L29.4,24.5
		L29.4,24.5z"/>
	<path style="fill:#E8E7E7;" d="M30.5,26.2l-0.4,0.4l0.1,0.5l-0.4-0.2l-0.4,0.3l0,0l0.1-0.5l-0.4-0.3l0.5-0.1l0.2-0.5l0.2,0.5
		L30.5,26.2z"/>
	<path style="fill:#E8E7E7;" d="M29.4,29.8l0.1-0.5L29.1,29l0.5-0.1l0.2-0.5l0.2,0.5l0.6-0.1l-0.4,0.4l0.1,0.5l-0.4-0.2L29.4,29.8
		L29.4,29.8z"/>
	<path style="fill:#E8E7E7;" d="M29.4,32.4l0.1-0.5L29,31.7l0.6-0.1l0.2-0.5l0.2,0.5l0.5-0.1l-0.4,0.4l0.1,0.5l-0.4-0.2L29.4,32.4
		L29.4,32.4z"/>
	<path style="fill:#E8E7E7;" d="M24.6,34.3L24.6,34.3C24.6,34.3,24.6,34.3,24.6,34.3L24.6,34.3z"/>
	<path style="fill:#E8E7E7;" d="M29.4,35.1L29.4,35.1C29.4,35.1,29.4,35.1,29.4,35.1L29.4,35.1z"/>
	<path style="fill:#E8E7E7;" d="M27.8,34L27.8,34L27.8,34L27.8,34z"/>
	<path style="fill:#E8E7E7;" d="M27,27.4C27,27.4,27.1,27.4,27,27.4C27,27.5,27,27.4,27,27.4L27,27.4z"/>
	<path style="fill:#E8E7E7;" d="M28.6,28.6L28.6,28.6L28.6,28.6L28.6,28.6z"/>
	<path style="fill:#E8E7E7;" d="M27.8,28.7L27.8,28.7L27.8,28.7L27.8,28.7z"/>
	<path style="fill:#E8E7E7;" d="M29.4,32.4L29.4,32.4L29.4,32.4L29.4,32.4z"/>
	<path style="fill:#E8E7E7;" d="M19.1,32.1L19.1,32.1L19.1,32.1C19.1,32.1,19.1,32.1,19.1,32.1z"/>
	<path style="fill:#E8E7E7;" d="M27,24.8L27,24.8L27,24.8L27,24.8z"/>
	<path style="fill:#E8E7E7;" d="M27.8,31.3L27.8,31.3C27.8,31.3,27.8,31.3,27.8,31.3L27.8,31.3z"/>
	<path style="fill:#E8E7E7;" d="M28.6,31.2L28.6,31.2L28.6,31.2L28.6,31.2z"/>
	<path style="fill:#E8E7E7;" d="M29.4,29.8L29.4,29.8C29.4,29.8,29.4,29.8,29.4,29.8L29.4,29.8z"/>
	<path style="fill:#F00222;" d="M49.9,45.1l-0.4-0.5v-1.8c-0.4-0.1-0.8-0.2-1.2-0.2c-0.8,0-1.7,0.1-2.5,0.2c-0.1,0-0.1,0-0.2,0
		l-0.1,0c-1.1,0.2-2.3,0.3-3.4,0.5c-3.2,0.5-6.4,1.1-9.6,1.6c-2,0.3-4.1,0.6-6.2,0.9c-0.6,0.1-1.3,0.1-1.9,0.2L23,46.1
		c-0.7,0.1-1.5,0.1-2.2,0.2c-1.2,0.1-2.4,0.2-3.6,0.2c-1.4,0.1-2.9,0.1-4.3,0.1c-0.1,0.4,0,0.8,0.2,1.2l0,0.1l0,0l0,0.1l0,0
		c0.1,0,0.1,0.1,0.2,0.1c0.3,0.3,0.7,0.4,1,0.4c0.7,0,1.4,0,2-0.1c0.6,0,1.3,0,1.9-0.1c0.1,0,0.3,0,0.4,0c0.1,0,0.3,0,0.4,0.1
		c0.7,0,1.3-0.1,2-0.1c0.8-0.1,1.5-0.1,2.3-0.2c0.8-0.1,1.6-0.2,2.4-0.2c0.8-0.1,1.5-0.2,2.3-0.3c0.9-0.1,1.7-0.2,2.6-0.3
		c0.9-0.1,1.8-0.3,2.7-0.4c0.8-0.1,1.6-0.2,2.4-0.4c1.1-0.2,2.2-0.4,3.3-0.5c0.8-0.1,1.7-0.3,2.5-0.4c0.9-0.1,1.9-0.3,2.8-0.4
		c0.8-0.1,1.6-0.2,2.3-0.3c0.4,0,0.7-0.1,1.1-0.1c0.5,0,1,0.1,1.5,0.1c0.4,0.1,0.5,0.5,0.2,0.8c-0.1,0.1-0.2,0.2-0.3,0.3
		c-0.3,0.2-0.7,0.4-1,0.5c-1,0.4-2.1,0.6-3.1,0.7c-1.1,0.2-2.3,0.4-3.4,0.7c0.6-0.1,1.2-0.1,1.9-0.2c1.5-0.2,2.9-0.5,4.4-0.9
		c0.5-0.3,1.1-0.5,1.6-0.8C49.8,45.8,50,45.4,49.9,45.1z"/>
	<path style="fill:#FEFEFE;" d="M49.9,41.2l-0.5-0.4c-0.7-0.2-1.5-0.2-2.3-0.1c-0.5,0.1-1,0.1-1.4,0.1l-0.1,0l0,0
		c-1.3,0.2-2.7,0.4-4,0.6c-3.3,0.5-6.7,1.1-10,1.7c-2.1,0.3-4.3,0.6-6.5,0.9c-0.3,0-0.5,0.1-0.8,0.1c-0.8,0.1-1.6,0.1-2.4,0.2
		c-0.1,0-0.2,0-0.3,0c-0.9,0.1-1.7,0.2-2.6,0.2c-1.9,0.1-3.7,0.1-5.6,0.2c-0.2,0-0.4,0-0.6,0l0,1.9c1.4,0,2.9,0,4.3-0.1
		c1.2,0,2.4-0.1,3.6-0.2c0.7,0,1.5-0.1,2.2-0.2l1.4-0.2c0.6-0.1,1.3-0.1,1.9-0.2c2.1-0.3,4.1-0.5,6.2-0.9c3.2-0.5,6.4-1.1,9.6-1.6
		c1.1-0.2,2.3-0.3,3.4-0.5l0.1,0c0.1,0,0.1,0,0.2,0c0.8-0.1,1.7-0.2,2.5-0.2c0.4,0,0.8,0.1,1.2,0.2l0.3,0.2v-1.6l0.2,0L49.9,41.2z"
		/>
	<path style="fill:#FEFEFE;" d="M50,37.5l-0.1-0.1L49.5,37c-0.9-0.2-1.8-0.3-2.7-0.2c-0.2,0-0.4,0-0.7,0.1l-0.9,0.1l0,0
		c-0.4,0.1-0.8,0.1-1.1,0.2c-3.3,0.6-6.7,1.1-10,1.7c-1.9,0.3-3.8,0.6-5.7,0.8c-1.6,0.2-3.1,0.4-4.7,0.5l-1.2,0.1
		c-0.7,0.1-1.3,0.2-2,0.2c-2.5,0.1-5.1,0.2-7.6,0.3c0,0.3,0,0.6,0,0.8c0,0.2,0,0.5,0,0.7l0,0.4c1,0,2,0,3-0.1
		c1.7-0.1,3.4-0.2,5.2-0.3c0.2,0,0.4,0,0.6,0c0.6-0.1,1.3-0.1,1.9-0.2c0,0,0.1,0,0.1,0c0.5,0,1-0.1,1.6-0.2c1.7-0.2,3.4-0.4,5.1-0.7
		c2.3-0.3,4.7-0.7,7-1.1c1.8-0.3,3.7-0.6,5.5-0.9c0.8-0.1,1.6-0.3,2.4-0.4c0-0.1,0-0.2,0-0.3c0,0.1,0,0.2,0,0.3l0.5,0
		c1.1-0.2,2.1-0.2,3.2-0.1c0.2,0,0.4,0.1,0.6,0.2l0.2,0.1v-1.6L50,37.5z"/>
	<path style="fill:#F00222;" d="M45.3,38.9c-0.8,0.1-1.6,0.3-2.4,0.4c-1.8,0.3-3.7,0.6-5.5,0.9c-2.3,0.4-4.6,0.8-7,1.1
		c-1.7,0.2-3.4,0.4-5.1,0.7c-0.5,0.1-1,0.1-1.6,0.2c0,0-0.1,0-0.1,0c-0.6,0.1-1.3,0.1-1.9,0.2l0,0c-0.2,0-0.4,0-0.6,0
		c-1.7,0.1-3.4,0.2-5.2,0.3c-1,0-2,0-3,0.1l0,1.9c0.2,0,0.4,0,0.6,0c1.9-0.1,3.7-0.1,5.6-0.2c0.9,0,1.7-0.1,2.6-0.2
		c0-0.6,0-1.2,0-1.8l0,1.8c0.1,0,0.2,0,0.3,0c0.8-0.1,1.6-0.1,2.4-0.2c0.3,0,0.5-0.1,0.8-0.1c2.2-0.3,4.3-0.5,6.5-0.9
		c3.3-0.5,6.7-1.1,10-1.7c1.3-0.2,2.6-0.4,4-0.6l0.1,0l0-1.9L45.3,38.9z"/>
	<path style="fill:#F00222;" d="M48.9,38.8c-1.1-0.1-2.1-0.1-3.2,0.1l0,1.9c0.5,0,1,0,1.4-0.1c0.8-0.1,1.5-0.1,2.3,0.1
		c0-0.2,0.1-0.3,0.1-0.5c0-0.4,0-0.9,0-1.3C49.3,38.9,49.1,38.8,48.9,38.8z"/>
	<path style="fill:#F00222;" d="M48.7,34.9c-0.9-0.1-1.8,0-2.7,0.1l0,0l-0.6,0.1c-1.6,0.3-3.2,0.5-4.8,0.8
		c-3.4,0.6-6.8,1.1-10.1,1.7c-2,0.3-4.1,0.5-6.1,0.8c-0.6,0.1-1.3,0.1-1.9,0.2l-0.8,0c-0.4,0-0.7,0.1-1.1,0.1
		c-2.6,0.1-5.2,0.2-7.7,0.3l0,1.9c2.5-0.1,5.1-0.2,7.6-0.3c0.7,0,1.3-0.1,2-0.2l0,0l1.2-0.1c1.6-0.2,3.1-0.3,4.7-0.5
		c1.9-0.3,3.8-0.5,5.7-0.8c3.3-0.5,6.7-1.1,10-1.7c0.4-0.1,0.8-0.1,1.1-0.2l0.9-0.1c0.2,0,0.4,0,0.7-0.1c0.9-0.1,1.9-0.1,2.7,0.2
		c0-0.5,0-1,0-1.5c0-0.1,0-0.2,0.1-0.3C49.3,35.1,49,35,48.7,34.9z"/>
	<path style="fill:#F00222;" d="M48.7,23.5c-1-0.1-2.1,0-3.1,0.2l-0.4,0c-2.6,0.4-5.3,0.9-7.9,1.3c-2.2,0.4-4.4,0.7-6.6,1.1
		c0,0.6,0,1.3,0,1.9c0.4-0.1,0.9-0.1,1.3-0.2c3-0.5,6.1-1,9.1-1.5c1.4-0.2,2.8-0.4,4.2-0.7l0.3-0.1c0.5-0.1,1.1-0.1,1.6-0.1
		c0.7-0.1,1.5,0,2.2,0.2l0-1.9C49.3,23.7,49,23.6,48.7,23.5z"/>
	<path style="fill:#F00222;" d="M48.6,27.3c-1-0.1-2,0-2.9,0.2l-0.2,0c-0.7,0.1-1.5,0.2-2.2,0.3c-2.2,0.4-4.5,0.8-6.7,1.1
		c-1.9,0.3-3.8,0.6-5.6,0.9c0,0.6,0,1.2,0,1.9c0.3,0,0.5-0.1,0.8-0.1c2.4-0.4,4.9-0.8,7.3-1.2c2.2-0.4,4.4-0.7,6.7-1.1l0.1,0
		c0.4,0,0.8-0.1,1.2-0.1c0.9-0.1,1.7-0.1,2.6,0.1c0-0.1,0-0.2,0.1-0.3c0-0.4,0-0.8,0-1.3c0-0.1,0-0.2,0-0.3
		C49.3,27.5,48.9,27.4,48.6,27.3z"/>
	<path style="fill:#F00222;" d="M49.6,31.4c-0.1-0.1-0.3-0.1-0.4-0.2c-1-0.2-2-0.2-3,0l-0.5,0c-3.6,0.6-7.1,1.2-10.7,1.8
		c-1.4,0.2-2.7,0.4-4.1,0.6c0,0.6,0,1.3,0,1.9c1.1-0.2,2.1-0.3,3.2-0.5c2.1-0.3,4.2-0.7,6.2-1.1c1.7-0.3,3.4-0.5,5.2-0.8l0.7-0.1
		c0.3,0,0.6-0.1,1-0.1c0.8-0.1,1.6,0,2.4,0.2c0-0.1,0-0.2,0-0.2c0-0.4,0-0.7,0-1.1C49.6,31.7,49.6,31.6,49.6,31.4z"/>
</g>
</svg>
